<?xml version="1.0" encoding="UTF-8" standalone="no"?><!DOCTYPE svg PUBLIC "-//W3C//DTD SVG 1.1//EN" "http://www.w3.org/Graphics/SVG/1.1/DTD/svg11.dtd"><svg width="100%" height="100%" viewBox="0 0 1300 500" version="1.1" xmlns="http://www.w3.org/2000/svg" xmlns:xlink="http://www.w3.org/1999/xlink" xml:space="preserve" style="fill-rule:evenodd;clip-rule:evenodd;stroke-linejoin:round;stroke-miterlimit:1.41421;"><g><g><path d="M106.53,277.723l44.387,0c5.885,0 11.271,0.689 16.159,1.97c4.887,1.28 9.077,3.151 12.568,5.416c3.491,2.364 6.184,5.121 8.179,8.371c1.995,3.25 2.893,6.894 2.893,10.834c0,2.954 -0.299,5.613 -0.998,7.977c-0.598,2.363 -1.695,4.53 -3.191,6.5c-1.497,1.969 -3.591,3.939 -6.185,5.712c-2.593,1.772 -5.885,3.644 -9.775,5.416l0,0.296c3.89,0.591 7.481,1.674 10.573,3.151c3.192,1.477 5.885,3.349 8.08,5.614c2.294,2.265 3.99,4.924 5.187,7.878c1.196,3.053 1.795,6.303 1.795,9.947c0,4.137 -0.898,7.977 -2.693,11.621c-1.796,3.546 -4.389,6.697 -7.78,9.258c-3.392,2.659 -7.382,4.727 -12.17,6.204c-4.787,1.477 -10.074,2.265 -15.959,2.265l-51.37,0l0,-108.43l0.3,0Zm18.552,48.946l23.541,0c3.69,0 6.982,-0.492 9.875,-1.575c2.892,-1.084 5.286,-2.463 7.281,-4.334c1.995,-1.772 3.491,-4.038 4.489,-6.5c1.097,-2.56 1.596,-5.318 1.596,-8.272c0,-3.152 -0.599,-6.106 -1.796,-8.667c-1.197,-2.56 -3.092,-4.825 -5.685,-6.598c-2.594,-1.773 -5.885,-3.25 -9.875,-4.235c-3.99,-0.985 -8.678,-1.477 -14.264,-1.477l-15.261,0l0,41.658l0.099,0Zm0,51.803l19.95,0c5.386,0 10.074,-0.493 13.964,-1.478c3.891,-0.985 7.182,-2.462 9.776,-4.333c2.593,-1.871 4.488,-4.038 5.785,-6.598c1.197,-2.561 1.895,-5.318 1.895,-8.371c0,-3.447 -0.499,-6.599 -1.596,-9.553c-1.097,-2.955 -2.893,-5.515 -5.386,-7.682c-2.494,-2.167 -5.786,-3.841 -9.875,-5.121c-4.09,-1.28 -9.077,-1.871 -14.962,-1.871l-19.451,0l0,45.007l-0.1,0Z" style="fill:#fff;fill-rule:nonzero;"/><path d="M204.381,302.639l16.857,0l0,15.856c1.696,-2.265 3.392,-4.53 5.287,-6.598c1.895,-2.068 3.79,-4.038 5.885,-5.614c1.995,-1.674 4.189,-2.954 6.384,-3.841c2.194,-0.886 4.488,-1.378 6.683,-1.378c1.795,0 3.491,0.295 5.087,0.787c1.596,0.591 2.992,1.281 4.189,2.167c1.197,0.886 2.095,1.97 2.793,3.152c0.698,1.181 0.998,2.462 0.998,3.84c0,2.659 -0.798,4.728 -2.494,6.106c-1.696,1.379 -4.09,2.069 -7.182,2.069c-1.895,0 -3.391,-0.197 -4.588,-0.591c-1.197,-0.394 -2.195,-0.887 -3.092,-1.379c-0.898,-0.493 -1.796,-0.886 -2.793,-1.379c-0.898,-0.394 -2.095,-0.591 -3.591,-0.591c-2.294,0 -4.489,1.182 -6.683,3.644c-2.195,2.462 -4.489,5.614 -6.982,9.356l0,58.007l-16.858,0l0,-83.613l0.1,0Z" style="fill:#fff;fill-rule:nonzero;"/><path d="M303.031,388.123c-6.584,0 -12.568,-1.083 -18.054,-3.349c-5.486,-2.265 -10.274,-5.318 -14.264,-9.158c-3.99,-3.841 -7.082,-8.372 -9.277,-13.493c-2.194,-5.121 -3.291,-10.636 -3.291,-16.545c0,-6.204 1.097,-11.916 3.291,-17.333c2.195,-5.417 5.287,-10.144 9.277,-14.182c3.99,-4.037 8.678,-7.287 14.264,-9.552c5.486,-2.364 11.47,-3.546 18.054,-3.546c6.384,0 12.368,1.083 17.854,3.25c5.487,2.167 10.175,5.121 14.164,8.765c3.99,3.742 7.083,8.076 9.277,13c2.294,5.023 3.391,10.341 3.391,16.053c0,6.401 -1.097,12.409 -3.391,17.924c-2.294,5.613 -5.386,10.439 -9.277,14.674c-3.989,4.234 -8.677,7.484 -14.164,9.947c-5.585,2.363 -11.47,3.545 -17.854,3.545Zm3.092,-6.106c3.292,0 6.384,-0.788 9.077,-2.462c2.793,-1.674 5.087,-3.939 7.082,-6.795c1.995,-2.857 3.591,-6.205 4.688,-9.947c1.097,-3.743 1.696,-7.781 1.696,-12.015c0,-6.106 -0.499,-11.818 -1.596,-17.038c-1.097,-5.318 -2.793,-9.848 -5.087,-13.788c-2.394,-3.939 -5.486,-6.992 -9.277,-9.257c-3.79,-2.265 -8.478,-3.447 -13.964,-3.447c-2.893,0 -5.586,0.788 -8.279,2.462c-2.594,1.674 -4.988,3.841 -6.983,6.599c-1.995,2.757 -3.69,6.007 -4.887,9.749c-1.197,3.743 -1.796,7.682 -1.796,11.917c0,6.106 0.699,11.818 1.995,17.136c1.297,5.318 3.192,10.045 5.686,14.083c2.494,4.038 5.486,7.189 9.177,9.455c3.69,2.265 7.88,3.348 12.468,3.348Z" style="fill:#fff;fill-rule:nonzero;"/><path d="M420.532,386.35l-16.956,0l0,-11.522c-1.995,1.477 -3.891,3.053 -5.786,4.628c-1.895,1.576 -3.99,3.053 -6.284,4.334c-2.294,1.28 -4.788,2.265 -7.481,3.151c-2.693,0.788 -5.885,1.182 -9.476,1.182c-3.291,0 -6.284,-0.493 -8.977,-1.576c-2.693,-1.083 -4.987,-2.56 -6.783,-4.432c-1.895,-1.871 -3.291,-4.037 -4.389,-6.598c-0.997,-2.561 -1.496,-5.318 -1.496,-8.273c0,-3.643 0.698,-6.893 2.195,-9.749c1.496,-2.856 3.491,-5.417 5.885,-7.781c2.493,-2.265 5.386,-4.333 8.678,-6.106c3.291,-1.772 6.882,-3.348 10.573,-4.727c3.79,-1.379 7.68,-2.659 11.67,-3.742c3.99,-1.083 7.88,-2.068 11.671,-3.053l0,-5.22c0,-3.841 -0.399,-7.091 -1.098,-9.651c-0.798,-2.561 -1.795,-4.727 -3.291,-6.303c-1.397,-1.576 -3.192,-2.758 -5.187,-3.447c-1.995,-0.689 -4.289,-1.083 -6.783,-1.083c-2.893,0 -5.187,0.394 -6.982,1.083c-1.796,0.788 -3.192,1.674 -4.19,2.856c-0.997,1.182 -1.695,2.561 -2.094,4.038c-0.399,1.477 -0.599,3.053 -0.599,4.629c0,1.477 -0.099,2.856 -0.299,4.234c-0.199,1.379 -0.698,2.462 -1.297,3.546c-0.598,0.985 -1.496,1.772 -2.593,2.462c-1.097,0.591 -2.494,0.985 -4.09,0.985c-2.593,0 -4.788,-0.887 -6.384,-2.758c-1.595,-1.871 -2.393,-4.235 -2.393,-6.992c0,-2.758 0.897,-5.318 2.792,-7.78c1.796,-2.364 4.29,-4.531 7.481,-6.205c3.093,-1.772 6.783,-3.151 10.873,-4.136c4.089,-0.985 8.478,-1.477 13.067,-1.477c5.586,0 10.274,0.492 14.064,1.575c3.79,1.084 6.982,2.561 9.276,4.531c2.394,1.969 4.09,4.333 5.088,6.992c1.097,2.757 1.595,5.712 1.595,9.06l0,63.325Zm-16.857,-48.749c-3.591,1.083 -7.381,2.462 -11.371,4.136c-3.99,1.674 -7.68,3.546 -10.972,5.712c-3.292,2.167 -6.085,4.531 -8.279,7.091c-2.194,2.561 -3.292,5.318 -3.292,8.273c0,2.068 0.399,4.038 1.098,5.81c0.798,1.773 1.795,3.447 3.092,4.826c1.296,1.379 2.793,2.462 4.389,3.25c1.695,0.788 3.391,1.182 5.186,1.182c3.791,0 7.182,-0.887 10.374,-2.758c3.192,-1.773 6.384,-3.939 9.676,-6.401l0,-31.121l0.099,0Z" style="fill:#fff;fill-rule:nonzero;"/><path d="M497.238,378.275c-1.995,1.575 -4.09,2.954 -6.284,4.136c-2.294,1.182 -4.589,2.265 -7.082,3.151c-2.494,0.887 -4.888,1.478 -7.481,1.97c-2.494,0.492 -4.988,0.689 -7.282,0.689c-4.987,0 -9.675,-1.181 -13.964,-3.447c-4.389,-2.265 -8.18,-5.318 -11.372,-9.257c-3.191,-3.939 -5.785,-8.47 -7.68,-13.591c-1.895,-5.121 -2.793,-10.636 -2.793,-16.348c0,-5.613 1.197,-11.129 3.491,-16.545c2.294,-5.417 5.486,-10.144 9.576,-14.28c4.09,-4.136 8.778,-7.485 14.264,-10.045c5.386,-2.561 11.171,-3.743 17.256,-3.743c4.09,0 7.78,0.69 10.872,2.068c3.092,1.379 5.985,3.349 8.579,5.712l0,-44.219l11.869,-4.825l4.988,0l0,128.422l-16.857,0l0,-9.848l-0.1,0Zm0,-49.045c0,-3.25 -0.599,-6.303 -1.895,-8.962c-1.197,-2.758 -2.893,-5.023 -4.888,-6.992c-1.995,-1.97 -4.289,-3.447 -6.783,-4.531c-2.493,-1.083 -5.087,-1.575 -7.581,-1.575c-3.391,0 -6.583,0.787 -9.475,2.462c-2.893,1.674 -5.487,3.939 -7.681,6.894c-2.194,2.954 -3.89,6.499 -5.087,10.636c-1.197,4.136 -1.895,8.666 -1.895,13.689c0,5.318 0.698,10.341 2.094,14.969c1.397,4.629 3.292,8.667 5.686,12.114c2.394,3.447 5.187,6.204 8.478,8.174c3.192,1.97 6.683,3.053 10.374,3.053c3.591,0 7.082,-0.886 10.474,-2.561c3.391,-1.674 6.084,-3.742 8.179,-6.007l0,-41.363l0,0Z" style="fill:#fff;fill-rule:nonzero;"/></g><g><path d="M591.997,334.253l0,52.097l-18.553,0l0,-108.627l18.553,0l0,49.439l55.26,0l0,-49.439l18.553,0l0,108.627l-18.553,0l0,-52.097l-55.26,0Z" style="fill:#fff;fill-rule:nonzero;"/><path d="M725.159,388.123c-6.583,0 -12.568,-1.083 -18.054,-3.349c-5.486,-2.265 -10.274,-5.318 -14.264,-9.158c-3.99,-3.841 -7.082,-8.372 -9.276,-13.493c-2.195,-5.121 -3.292,-10.636 -3.292,-16.545c0,-6.204 1.097,-11.916 3.292,-17.333c2.194,-5.417 5.286,-10.144 9.276,-14.182c3.99,-4.037 8.678,-7.287 14.264,-9.552c5.486,-2.364 11.471,-3.546 18.054,-3.546c6.384,0 12.369,1.083 17.855,3.25c5.486,2.167 10.174,5.121 14.164,8.765c3.99,3.742 7.082,8.076 9.276,13c2.295,5.023 3.392,10.341 3.392,16.053c0,6.401 -1.097,12.409 -3.392,17.924c-2.294,5.613 -5.386,10.439 -9.276,14.674c-3.99,4.234 -8.678,7.484 -14.164,9.947c-5.486,2.363 -11.471,3.545 -17.855,3.545Zm3.192,-6.106c3.292,0 6.384,-0.788 9.077,-2.462c2.793,-1.674 5.087,-3.939 7.082,-6.795c1.995,-2.857 3.591,-6.205 4.688,-9.947c1.097,-3.743 1.696,-7.781 1.696,-12.015c0,-6.106 -0.499,-11.818 -1.596,-17.038c-1.097,-5.318 -2.793,-9.848 -5.087,-13.788c-2.394,-3.939 -5.486,-6.992 -9.277,-9.257c-3.79,-2.265 -8.478,-3.447 -13.964,-3.447c-2.893,0 -5.586,0.788 -8.279,2.462c-2.594,1.674 -4.987,3.841 -6.982,6.599c-1.995,2.757 -3.691,6.007 -4.888,9.749c-1.197,3.743 -1.795,7.682 -1.795,11.917c0,6.106 0.698,11.818 1.994,17.136c1.297,5.318 3.192,10.045 5.686,14.083c2.494,4.038 5.486,7.189 9.177,9.455c3.591,2.265 7.78,3.348 12.468,3.348Z" style="fill:#fff;fill-rule:nonzero;"/><path d="M780.219,302.639l16.858,0l0,15.856c1.695,-2.265 3.391,-4.53 5.286,-6.598c1.895,-2.068 3.791,-4.038 5.885,-5.614c1.995,-1.674 4.19,-2.954 6.384,-3.841c2.195,-0.886 4.489,-1.378 6.683,-1.378c1.796,0 3.491,0.295 5.087,0.787c1.596,0.591 2.993,1.281 4.19,2.167c1.197,0.886 2.094,1.97 2.792,3.152c0.699,1.181 0.998,2.462 0.998,3.84c0,2.659 -0.798,4.728 -2.494,6.106c-1.695,1.379 -4.089,2.069 -7.181,2.069c-1.896,0 -3.392,-0.197 -4.589,-0.591c-1.197,-0.394 -2.194,-0.887 -3.092,-1.379c-0.898,-0.493 -1.795,-0.886 -2.793,-1.379c-0.898,-0.394 -2.095,-0.591 -3.591,-0.591c-2.294,0 -4.488,1.182 -6.683,3.644c-2.194,2.462 -4.488,5.614 -6.982,9.356l0,58.007l-16.857,0l0,-83.613l0.099,0Z" style="fill:#fff;fill-rule:nonzero;"/><path d="M848.347,259.701c1.396,0 2.593,0.197 3.79,0.689c1.197,0.492 2.194,1.083 3.092,1.871c0.898,0.788 1.596,1.674 2.095,2.659c0.498,0.985 0.798,2.068 0.798,3.152c0,1.083 -0.3,2.166 -0.798,3.25c-0.499,1.083 -1.197,1.969 -2.095,2.659c-0.898,0.788 -1.895,1.378 -3.092,1.772c-1.197,0.493 -2.394,0.69 -3.79,0.69c-2.594,0 -4.888,-0.788 -6.783,-2.462c-1.895,-1.675 -2.793,-3.644 -2.793,-5.909c0,-1.084 0.299,-2.167 0.798,-3.152c0.499,-0.985 1.197,-1.871 2.094,-2.659c0.898,-0.788 1.896,-1.379 3.093,-1.871c1.097,-0.492 2.294,-0.689 3.591,-0.689Zm-8.279,45.991l11.869,-4.825l4.988,0l0,85.483l-16.857,0l0,-80.658Z" style="fill:#fff;fill-rule:nonzero;"/><path d="M862.61,382.017l61.045,-72.385l-61.045,0l0,-6.993l85.084,0l0,3.546l-62.541,73.173l62.541,0l0,6.992l-85.084,0l0,-4.333Z" style="fill:#fff;fill-rule:nonzero;"/><path d="M994.077,388.123c-6.584,0 -12.569,-1.083 -18.055,-3.349c-5.486,-2.265 -10.274,-5.318 -14.263,-9.158c-3.99,-3.841 -7.082,-8.372 -9.277,-13.493c-2.194,-5.121 -3.291,-10.636 -3.291,-16.545c0,-6.204 1.097,-11.916 3.291,-17.333c2.195,-5.417 5.287,-10.144 9.277,-14.182c3.989,-4.037 8.678,-7.287 14.263,-9.552c5.486,-2.364 11.471,-3.546 18.055,-3.546c6.383,0 12.368,1.083 17.854,3.25c5.486,2.167 10.174,5.121 14.164,8.765c3.99,3.742 7.082,8.076 9.277,13c2.294,5.023 3.391,10.341 3.391,16.053c0,6.401 -1.097,12.409 -3.391,17.924c-2.294,5.613 -5.387,10.439 -9.277,14.674c-3.99,4.234 -8.678,7.484 -14.164,9.947c-5.486,2.363 -11.471,3.545 -17.854,3.545Zm3.191,-6.106c3.292,0 6.384,-0.788 9.077,-2.462c2.793,-1.674 5.088,-3.939 7.082,-6.795c1.995,-2.857 3.591,-6.205 4.689,-9.947c1.097,-3.743 1.695,-7.781 1.695,-12.015c0,-6.106 -0.498,-11.818 -1.596,-17.038c-1.097,-5.318 -2.793,-9.848 -5.187,-13.788c-2.393,-3.939 -5.486,-6.992 -9.276,-9.257c-3.79,-2.265 -8.478,-3.447 -13.965,-3.447c-2.892,0 -5.585,0.788 -8.279,2.462c-2.593,1.674 -4.987,3.841 -6.982,6.599c-1.995,2.757 -3.69,6.007 -4.887,9.749c-1.197,3.743 -1.796,7.682 -1.796,11.917c0,6.106 0.698,11.818 1.995,17.136c1.297,5.318 3.192,10.045 5.686,14.083c2.493,4.038 5.486,7.189 9.176,9.455c3.691,2.265 7.88,3.348 12.568,3.348Z" style="fill:#fff;fill-rule:nonzero;"/><path d="M1049.14,302.639l16.957,0l0,15.265c5.087,-5.613 10.473,-9.848 15.959,-12.704c5.486,-2.856 11.172,-4.235 16.857,-4.235c2.893,0 5.686,0.69 8.279,1.97c2.594,1.379 4.888,3.151 6.783,5.416c1.895,2.266 3.491,4.925 4.589,7.978c1.097,3.053 1.695,6.401 1.695,9.848l0,60.173l-16.857,0l0,-57.317c0,-5.614 -1.297,-9.75 -3.79,-12.606c-2.494,-2.856 -5.786,-4.333 -9.776,-4.333c-3.59,0 -7.481,1.083 -11.77,3.348c-4.189,2.265 -8.279,5.121 -12.069,8.765l0,62.045l-16.957,0l0,-83.613l0.1,0Z" style="fill:#fff;fill-rule:nonzero;"/><path d="M1160.95,382.411c2.294,0 4.389,-0.394 6.284,-1.083c1.995,-0.69 3.591,-1.675 4.987,-2.758c1.397,-1.182 2.494,-2.462 3.292,-3.939c0.798,-1.478 1.197,-3.053 1.197,-4.531c0,-2.56 -0.698,-4.825 -1.995,-6.696c-1.297,-1.872 -2.992,-3.546 -5.087,-5.023c-2.095,-1.477 -4.489,-2.856 -7.182,-4.136c-2.693,-1.281 -5.486,-2.561 -8.379,-3.94c-2.892,-1.28 -5.685,-2.757 -8.378,-4.234c-2.693,-1.478 -5.087,-3.25 -7.182,-5.319c-2.095,-1.969 -3.79,-4.333 -5.087,-6.992c-1.297,-2.659 -1.995,-5.712 -1.995,-9.257c0,-3.349 0.698,-6.402 2.095,-9.258c1.396,-2.856 3.491,-5.318 6.084,-7.386c2.594,-2.068 5.686,-3.742 9.177,-4.924c3.491,-1.182 7.381,-1.773 11.67,-1.773c2.793,0 5.387,0.197 7.88,0.591c2.494,0.394 4.888,1.083 7.182,2.265c2.394,1.083 4.688,2.659 7.082,4.727c2.294,2.068 4.788,4.728 7.381,7.977l-6.184,5.417c-3.192,-5.121 -6.783,-8.962 -10.773,-11.522c-3.99,-2.561 -8.179,-3.841 -12.668,-3.841c-2.393,0 -4.588,0.295 -6.583,0.886c-1.995,0.591 -3.69,1.379 -5.087,2.364c-1.396,0.984 -2.494,2.166 -3.292,3.545c-0.798,1.379 -1.196,2.758 -1.196,4.333c0,3.349 1.196,6.106 3.69,8.371c2.494,2.265 5.486,4.235 9.177,6.008c3.69,1.773 7.581,3.545 11.87,5.219c4.289,1.675 8.279,3.644 11.87,5.909c3.69,2.266 6.683,4.925 9.176,7.978c2.394,3.151 3.691,6.992 3.691,11.719c0,3.546 -0.698,6.894 -1.995,9.947c-1.297,3.053 -3.292,5.712 -6.085,7.977c-2.693,2.265 -6.084,4.038 -10.174,5.318c-4.089,1.28 -8.777,1.97 -14.264,1.97c-2.493,0 -5.087,-0.197 -7.68,-0.591c-2.593,-0.394 -5.287,-1.083 -7.88,-2.265c-2.593,-1.083 -5.287,-2.659 -7.98,-4.727c-2.693,-2.068 -5.286,-4.728 -7.88,-7.977l6.883,-6.106c1.995,2.856 3.99,5.219 5.885,7.287c1.895,1.97 3.79,3.644 5.785,4.924c1.995,1.281 3.99,2.167 6.085,2.758c1.895,0.492 4.189,0.788 6.583,0.788Z" style="fill:#fff;fill-rule:nonzero;"/></g><path d="M630.2,181.209c96.256,0 186.627,8.174 262.634,20.189c-23.042,-114.831 -125.582,-201.398 -248.569,-201.398c-122.888,0 -225.428,86.468 -248.569,201.103c66.032,-10.932 146.827,-19.894 234.504,-19.894Z" style="fill:#fff;fill-rule:nonzero;"/><path d="M224.53,250.64c0,0 176.552,-58.007 400.583,-58.007c198.995,0 367.866,34.864 439.086,64.015c-122.988,-35.553 -440.183,-57.712 -531.252,-41.166c94.261,-5.614 199.194,3.053 262.234,27.181c-80.196,-12.015 -106.529,-13.985 -187.424,-13.985c-66.232,0 -119.596,7.288 -175.255,21.864c48.976,-21.273 67.628,-22.848 113.013,-28.364c-86.879,-15.757 -320.985,28.462 -320.985,28.462Z" style="fill:#fff;fill-rule:nonzero;"/></g><g><path d="M12.967,457.357c7.282,0 12.269,5.219 12.269,13c0,7.78 -4.987,13.098 -12.269,13.098l-9.376,0l0,15.757l-3.591,0l0,-41.855l12.967,0Zm-9.376,22.552l8.578,0c5.885,0 9.376,-3.545 9.376,-9.552c0,-6.008 -3.491,-9.455 -9.376,-9.455l-8.578,0l0,19.007Z" style="fill:#fff;fill-rule:nonzero;"/><path d="M53.265,487.887c0.399,5.022 4.688,8.469 10.673,8.469c5.685,0 9.775,-3.447 9.775,-8.174c0,-3.939 -2.494,-6.204 -8.08,-7.78l-4.688,-1.379c-7.082,-1.97 -10.174,-5.22 -10.174,-10.735c0,-6.795 5.586,-11.621 13.067,-11.621c7.381,0 12.867,4.826 13.067,11.424l-3.591,0c-0.299,-4.727 -4.189,-7.878 -9.576,-7.878c-5.286,0 -9.177,3.25 -9.177,7.878c0,3.644 2.394,5.712 7.98,7.288l4.09,1.182c7.68,2.167 10.872,5.318 10.872,11.227c0,7.386 -5.386,12.212 -13.765,12.212c-7.98,0 -13.565,-4.826 -13.964,-12.015l3.491,0l0,-0.098Z" style="fill:#fff;fill-rule:nonzero;"/><path d="M114.11,499.212l0,-18.121l-13.665,-23.734l4.09,0l11.271,19.893l0.1,0l11.271,-19.893l4.09,0l-13.666,23.734l0,18.121l-3.491,0Z" style="fill:#fff;fill-rule:nonzero;"/><path d="M153.012,478.137c0,-13.099 6.583,-21.47 16.957,-21.47c8.079,0 14.463,5.811 15.46,13.985l-3.591,0c-1.097,-6.008 -5.885,-10.242 -11.869,-10.242c-8.08,0 -13.267,6.894 -13.267,17.825c0,11.03 5.187,18.023 13.267,18.023c6.084,0 10.672,-3.546 11.77,-9.356l3.591,0c-1.297,8.174 -7.182,13.098 -15.461,13.098c-10.274,-0.098 -16.857,-8.568 -16.857,-21.863Z" style="fill:#fff;fill-rule:nonzero;"/><path d="M237.697,499.212l0,-19.697l-22.244,0l0,19.697l-3.591,0l0,-41.855l3.591,0l0,18.613l22.244,0l0,-18.613l3.591,0l0,41.855l-3.591,0Z" style="fill:#fff;fill-rule:nonzero;"/><path d="M302.632,478.334c0,13.295 -6.683,21.568 -17.356,21.568c-10.573,0 -17.256,-8.372 -17.256,-21.568c0,-13.296 6.683,-21.667 17.256,-21.667c10.673,0 17.356,8.371 17.356,21.667Zm-30.922,0c0,10.931 5.287,17.924 13.566,17.924c8.379,0 13.665,-6.894 13.665,-17.924c0,-11.03 -5.286,-17.924 -13.665,-17.924c-8.279,-0.099 -13.566,6.894 -13.566,17.924Z" style="fill:#fff;fill-rule:nonzero;"/><path d="M336.745,499.212l0,-38.31l-12.568,0l0,-3.644l28.827,0l0,3.644l-12.568,0l0,38.31l-3.691,0Z" style="fill:#fff;fill-rule:nonzero;"/><path d="M404.473,499.212l0,-19.697l-22.243,0l0,19.697l-3.591,0l0,-41.855l3.591,0l0,18.613l22.243,0l0,-18.613l3.591,0l0,41.855l-3.591,0Z" style="fill:#fff;fill-rule:nonzero;"/><path d="M459.334,499.212l-23.042,0l0,-41.855l23.042,0l0,3.644l-19.451,0l0,15.068l18.454,0l0,3.545l-18.454,0l0,16.053l19.451,0l0,3.545Z" style="fill:#fff;fill-rule:nonzero;"/><path d="M490.156,499.212l-3.591,0l0,-41.855l13.466,0c7.481,0 12.169,4.825 12.169,12.212c0,5.909 -3.092,10.439 -8.179,11.818l9.276,17.825l-4.189,0l-8.778,-17.136c-0.1,0 -0.399,0 -0.599,0l-9.575,0l0,17.136Zm0,-20.681l9.575,0c5.586,0 8.778,-3.25 8.778,-8.864c0,-5.515 -3.391,-8.863 -8.877,-8.863l-9.476,0l0,17.727Z" style="fill:#fff;fill-rule:nonzero;"/><path d="M560.278,486.409l-15.96,0l-4.189,12.803l-3.89,0l14.264,-41.855l3.59,0l14.264,41.855l-3.79,0l-4.289,-12.803Zm-14.962,-3.447l13.865,0l-6.883,-20.681l-0.1,0l-6.882,20.681Z" style="fill:#fff;fill-rule:nonzero;"/><path d="M606.56,457.357c7.282,0 12.269,5.219 12.269,13c0,7.78 -4.987,13.098 -12.269,13.098l-9.376,0l0,15.757l-3.591,0l0,-41.855l12.967,0Zm-9.376,22.552l8.578,0c5.885,0 9.376,-3.545 9.376,-9.552c0,-6.008 -3.491,-9.455 -9.376,-9.455l-8.578,0l0,19.007Z" style="fill:#fff;fill-rule:nonzero;"/><path d="M668.004,499.212l-23.041,0l0,-41.855l23.041,0l0,3.644l-19.45,0l0,15.068l18.453,0l0,3.545l-18.453,0l0,16.053l19.45,0l0,3.545Z" style="fill:#fff;fill-rule:nonzero;"/><path d="M698.826,484.341c0,6.992 4.189,11.818 11.172,11.818c6.982,0 11.171,-4.826 11.171,-11.818l0,-26.984l3.591,0l0,27.28c0,9.06 -5.586,15.265 -14.762,15.265c-9.177,0 -14.763,-6.303 -14.763,-15.265l0,-27.28l3.591,0l0,26.984Z" style="fill:#fff;fill-rule:nonzero;"/><path d="M762.963,499.212l0,-38.31l-12.568,0l0,-3.644l28.827,0l0,3.644l-12.568,0l0,38.31l-3.691,0Z" style="fill:#fff;fill-rule:nonzero;"/><rect x="804.757" y="457.357" width="3.591" height="41.855" style="fill:#fff;fill-rule:nonzero;"/><path d="M835.08,478.137c0,-13.099 6.583,-21.47 16.957,-21.47c8.08,0 14.463,5.811 15.461,13.985l-3.591,0c-1.097,-6.008 -5.885,-10.242 -11.87,-10.242c-8.079,0 -13.266,6.894 -13.266,17.825c0,11.03 5.187,18.023 13.266,18.023c6.085,0 10.673,-3.546 11.77,-9.356l3.591,0c-1.396,8.174 -7.182,13.098 -15.461,13.098c-10.274,-0.098 -16.857,-8.568 -16.857,-21.863Z" style="fill:#fff;fill-rule:nonzero;"/><path d="M927.446,487.887c0.399,5.022 4.688,8.469 10.673,8.469c5.685,0 9.775,-3.447 9.775,-8.174c0,-3.939 -2.494,-6.204 -8.08,-7.78l-4.688,-1.379c-7.082,-1.97 -10.174,-5.22 -10.174,-10.735c0,-6.795 5.586,-11.621 13.067,-11.621c7.381,0 12.867,4.826 13.067,11.424l-3.591,0c-0.299,-4.727 -4.19,-7.878 -9.576,-7.878c-5.286,0 -9.177,3.25 -9.177,7.878c0,3.644 2.394,5.712 7.98,7.288l4.09,1.182c7.68,2.167 10.872,5.318 10.872,11.227c0,7.386 -5.386,12.212 -13.765,12.212c-7.98,0 -13.565,-4.826 -13.964,-12.015l3.491,0l0,-0.098Z" style="fill:#fff;fill-rule:nonzero;"/><path d="M1000.96,499.212l-23.041,0l0,-41.855l23.041,0l0,3.644l-19.451,0l0,15.068l18.454,0l0,3.545l-18.454,0l0,16.053l19.451,0l0,3.545Z" style="fill:#fff;fill-rule:nonzero;"/><path d="M1031.78,499.212l-3.591,0l0,-41.855l13.466,0c7.481,0 12.169,4.825 12.169,12.212c0,5.909 -3.092,10.439 -8.179,11.818l9.276,17.825l-4.189,0l-8.778,-17.136c-0.1,0 -0.399,0 -0.598,0l-9.576,0l0,17.136Zm0,-20.681l9.576,0c5.585,0 8.777,-3.25 8.777,-8.864c0,-5.515 -3.391,-8.863 -8.877,-8.863l-9.476,0l0,17.727Z" style="fill:#fff;fill-rule:nonzero;"/><path d="M1092.13,499.212l-14.264,-41.855l3.79,0l12.169,36.931l0.2,0l12.169,-36.931l3.79,0l-14.263,41.855l-3.591,0Z" style="fill:#fff;fill-rule:nonzero;"/><rect x="1135.22" y="457.357" width="3.591" height="41.855" style="fill:#fff;fill-rule:nonzero;"/><path d="M1165.44,478.137c0,-13.099 6.583,-21.47 16.957,-21.47c8.079,0 14.463,5.811 15.46,13.985l-3.591,0c-1.097,-6.008 -5.885,-10.242 -11.869,-10.242c-8.08,0 -13.267,6.894 -13.267,17.825c0,11.03 5.187,18.023 13.267,18.023c6.084,0 10.672,-3.546 11.77,-9.356l3.591,0c-1.397,8.174 -7.182,13.098 -15.461,13.098c-10.174,-0.098 -16.857,-8.568 -16.857,-21.863Z" style="fill:#fff;fill-rule:nonzero;"/><path d="M1247.33,499.212l-23.042,0l0,-41.855l23.042,0l0,3.644l-19.451,0l0,15.068l18.453,0l0,3.545l-18.453,0l0,16.053l19.451,0l0,3.545Z" style="fill:#fff;fill-rule:nonzero;"/><path d="M1275.76,487.887c0.399,5.022 4.688,8.469 10.672,8.469c5.686,0 9.776,-3.447 9.776,-8.174c0,-3.939 -2.494,-6.204 -8.08,-7.78l-4.688,-1.379c-7.082,-1.97 -10.174,-5.22 -10.174,-10.735c0,-6.795 5.586,-11.621 13.067,-11.621c7.381,0 12.867,4.826 13.067,11.424l-3.591,0c-0.3,-4.727 -4.19,-7.878 -9.576,-7.878c-5.287,0 -9.177,3.25 -9.177,7.878c0,3.644 2.394,5.712 7.98,7.288l4.09,1.182c7.68,2.167 10.872,5.318 10.872,11.227c0,7.386 -5.386,12.212 -13.765,12.212c-7.98,0 -13.566,-4.826 -13.965,-12.015l3.492,0l0,-0.098Z" style="fill:#fff;fill-rule:nonzero;"/></g></svg>