<?xml version="1.0" encoding="UTF-8" standalone="no"?><!DOCTYPE svg PUBLIC "-//W3C//DTD SVG 1.1//EN" "http://www.w3.org/Graphics/SVG/1.1/DTD/svg11.dtd"><svg width="100%" height="100%" viewBox="0 0 1090 395" version="1.1" xmlns="http://www.w3.org/2000/svg" xmlns:xlink="http://www.w3.org/1999/xlink" xml:space="preserve" style="fill-rule:evenodd;clip-rule:evenodd;stroke-linejoin:round;stroke-miterlimit:1.41421;"><g><g><path d="M0.3,282.501l44.492,0c5.899,0 11.298,0.701 16.197,2.003c4.899,1.302 9.098,3.206 12.597,5.51c3.5,2.404 6.199,5.209 8.199,8.515c2,3.306 2.899,7.012 2.899,11.02c0,3.005 -0.299,5.71 -0.999,8.114c-0.6,2.404 -1.7,4.608 -3.2,6.612c-1.499,2.003 -3.599,4.007 -6.199,5.81c-2.599,1.803 -5.899,3.707 -9.798,5.51l0,0.3c3.899,0.601 7.499,1.703 10.598,3.206c3.2,1.503 5.899,3.406 8.099,5.71c2.299,2.304 3.999,5.009 5.199,8.014c1.2,3.106 1.799,6.412 1.799,10.118c0,4.208 -0.899,8.115 -2.699,11.821c-1.8,3.607 -4.399,6.812 -7.799,9.417c-3.399,2.705 -7.398,4.808 -12.197,6.311c-4.8,1.503 -10.099,2.304 -15.997,2.304l-51.491,0l0,-110.295l0.3,0Zm18.597,49.788l23.595,0c3.7,0 6.999,-0.501 9.898,-1.603c2.9,-1.102 5.299,-2.504 7.299,-4.408c2,-1.803 3.499,-4.107 4.499,-6.612c1.1,-2.604 1.6,-5.409 1.6,-8.414c0,-3.206 -0.6,-6.211 -1.8,-8.816c-1.2,-2.605 -3.099,-4.909 -5.699,-6.712c-2.599,-1.803 -5.899,-3.306 -9.898,-4.308c-3.999,-1.001 -8.698,-1.502 -14.297,-1.502l-15.297,0l0,42.375l0.1,0Zm0,52.693l19.996,0c5.399,0 10.098,-0.501 13.997,-1.502c3.9,-1.002 7.199,-2.505 9.798,-4.408c2.6,-1.904 4.5,-4.108 5.799,-6.712c1.2,-2.605 1.9,-5.41 1.9,-8.515c0,-3.506 -0.5,-6.712 -1.6,-9.717c-1.099,-3.006 -2.899,-5.61 -5.399,-7.814c-2.499,-2.204 -5.799,-3.907 -9.898,-5.21c-4.099,-1.302 -9.098,-1.903 -14.997,-1.903l-19.496,0l0,45.781l-0.1,0Z" style="fill:#171b60;fill-rule:nonzero;"/><path d="M98.382,307.846l16.897,0l0,16.128c1.7,-2.304 3.399,-4.608 5.299,-6.712c1.9,-2.103 3.799,-4.107 5.899,-5.71c1.999,-1.703 4.199,-3.005 6.399,-3.907c2.199,-0.901 4.499,-1.402 6.698,-1.402c1.8,0 3.5,0.3 5.099,0.801c1.6,0.601 3,1.302 4.2,2.204c1.199,0.902 2.099,2.004 2.799,3.206c0.7,1.202 1,2.504 1,3.907c0,2.704 -0.8,4.808 -2.5,6.211c-1.699,1.402 -4.099,2.103 -7.198,2.103c-1.9,0 -3.4,-0.2 -4.599,-0.601c-1.2,-0.4 -2.2,-0.901 -3.1,-1.402c-0.9,-0.501 -1.799,-0.902 -2.799,-1.403c-0.9,-0.4 -2.1,-0.601 -3.6,-0.601c-2.299,0 -4.499,1.202 -6.698,3.707c-2.2,2.504 -4.5,5.71 -6.999,9.517l0,59.004l-16.897,0l0,-85.05l0.1,0Z" style="fill:#171b60;fill-rule:nonzero;"/><path d="M197.264,394.8c-6.599,0 -12.598,-1.102 -18.097,-3.406c-5.499,-2.304 -10.298,-5.41 -14.297,-9.317c-4,-3.907 -7.099,-8.515 -9.299,-13.724c-2.199,-5.209 -3.299,-10.819 -3.299,-16.83c0,-6.311 1.1,-12.122 3.299,-17.631c2.2,-5.51 5.299,-10.319 9.299,-14.426c3.999,-4.107 8.698,-7.413 14.297,-9.717c5.499,-2.404 11.498,-3.606 18.097,-3.606c6.399,0 12.398,1.101 17.897,3.305c5.499,2.204 10.198,5.21 14.197,8.916c3.999,3.807 7.099,8.215 9.298,13.224c2.3,5.109 3.4,10.518 3.4,16.329c0,6.511 -1.1,12.622 -3.4,18.232c-2.299,5.71 -5.399,10.619 -9.298,14.926c-3.999,4.308 -8.698,7.614 -14.197,10.118c-5.599,2.405 -11.498,3.607 -17.897,3.607Zm3.099,-6.211c3.3,0 6.399,-0.802 9.099,-2.505c2.799,-1.703 5.099,-4.007 7.098,-6.912c2,-2.905 3.6,-6.311 4.699,-10.118c1.1,-3.807 1.7,-7.914 1.7,-12.222c0,-6.211 -0.5,-12.021 -1.6,-17.33c-1.099,-5.41 -2.799,-10.018 -5.099,-14.025c-2.399,-4.007 -5.499,-7.113 -9.298,-9.417c-3.799,-2.304 -8.498,-3.506 -13.997,-3.506c-2.9,0 -5.599,0.801 -8.299,2.504c-2.599,1.703 -4.999,3.907 -6.999,6.712c-1.999,2.805 -3.699,6.111 -4.899,9.918c-1.199,3.807 -1.799,7.814 -1.799,12.121c0,6.211 0.7,12.022 1.999,17.431c1.3,5.41 3.2,10.218 5.699,14.326c2.5,4.107 5.499,7.313 9.199,9.617c3.699,2.304 7.898,3.406 12.497,3.406Z" style="fill:#171b60;fill-rule:nonzero;"/><path d="M315.042,392.996l-16.997,0l0,-11.72c-1.999,1.502 -3.899,3.105 -5.799,4.708c-1.899,1.603 -3.999,3.106 -6.298,4.408c-2.3,1.302 -4.8,2.304 -7.499,3.206c-2.7,0.801 -5.899,1.202 -9.498,1.202c-3.3,0 -6.299,-0.501 -8.999,-1.603c-2.699,-1.102 -4.999,-2.605 -6.798,-4.508c-1.9,-1.904 -3.3,-4.107 -4.4,-6.712c-0.999,-2.605 -1.499,-5.41 -1.499,-8.415c0,-3.707 0.7,-7.012 2.199,-9.918c1.5,-2.905 3.5,-5.509 5.899,-7.914c2.5,-2.304 5.399,-4.407 8.699,-6.211c3.299,-1.803 6.898,-3.406 10.598,-4.808c3.799,-1.403 7.698,-2.705 11.697,-3.807c4,-1.102 7.899,-2.104 11.698,-3.105l0,-5.31c0,-3.907 -0.4,-7.213 -1.099,-9.817c-0.8,-2.605 -1.8,-4.809 -3.3,-6.412c-1.4,-1.602 -3.199,-2.805 -5.199,-3.506c-2,-0.701 -4.299,-1.102 -6.799,-1.102c-2.899,0 -5.199,0.401 -6.998,1.102c-1.8,0.802 -3.2,1.703 -4.2,2.905c-0.999,1.203 -1.699,2.605 -2.099,4.108c-0.4,1.502 -0.6,3.105 -0.6,4.708c0,1.503 -0.1,2.905 -0.3,4.308c-0.2,1.402 -0.7,2.504 -1.3,3.606c-0.6,1.002 -1.5,1.803 -2.599,2.504c-1.1,0.602 -2.5,1.002 -4.1,1.002c-2.599,0 -4.799,-0.901 -6.398,-2.805c-1.6,-1.903 -2.4,-4.307 -2.4,-7.112c0,-2.805 0.9,-5.41 2.799,-7.914c1.8,-2.405 4.3,-4.609 7.499,-6.312c3.1,-1.803 6.799,-3.205 10.898,-4.207c4.099,-1.002 8.499,-1.503 13.098,-1.503c5.599,0 10.298,0.501 14.097,1.603c3.799,1.102 6.999,2.605 9.298,4.608c2.4,2.004 4.1,4.408 5.099,7.113c1.1,2.805 1.6,5.81 1.6,9.216l0,64.414Zm-16.897,-49.587c-3.599,1.102 -7.398,2.504 -11.398,4.207c-3.999,1.703 -7.698,3.606 -10.998,5.81c-3.299,2.204 -6.098,4.608 -8.298,7.213c-2.2,2.605 -3.299,5.41 -3.299,8.415c0,2.104 0.399,4.107 1.099,5.91c0.8,1.804 1.8,3.507 3.1,4.909c1.3,1.403 2.799,2.505 4.399,3.306c1.7,0.801 3.399,1.202 5.199,1.202c3.799,0 7.199,-0.901 10.398,-2.805c3.2,-1.803 6.399,-4.007 9.698,-6.511l0,-31.656l0.1,0Z" style="fill:#171b60;fill-rule:nonzero;"/><path d="M391.928,384.782c-2,1.603 -4.099,3.005 -6.299,4.207c-2.299,1.202 -4.599,2.304 -7.098,3.206c-2.5,0.902 -4.9,1.503 -7.499,2.004c-2.5,0.5 -4.999,0.701 -7.299,0.701c-4.999,0 -9.698,-1.202 -13.997,-3.506c-4.399,-2.304 -8.199,-5.41 -11.398,-9.417c-3.199,-4.007 -5.799,-8.615 -7.699,-13.825c-1.899,-5.209 -2.799,-10.819 -2.799,-16.629c0,-5.71 1.2,-11.32 3.499,-16.83c2.3,-5.51 5.499,-10.318 9.598,-14.526c4.1,-4.207 8.799,-7.613 14.298,-10.218c5.399,-2.604 11.198,-3.806 17.297,-3.806c4.099,0 7.798,0.701 10.898,2.103c3.099,1.403 5.999,3.406 8.598,5.811l0,-44.98l11.898,-4.909l4.999,0l0,130.632l-16.897,0l0,-10.018l-0.1,0Zm0,-49.889c0,-3.305 -0.6,-6.411 -1.9,-9.116c-1.199,-2.805 -2.899,-5.109 -4.899,-7.112c-1.999,-2.004 -4.299,-3.506 -6.798,-4.608c-2.5,-1.102 -5.099,-1.603 -7.599,-1.603c-3.399,0 -6.599,0.801 -9.498,2.504c-2.9,1.703 -5.499,4.007 -7.699,7.013c-2.199,3.005 -3.899,6.611 -5.099,10.819c-1.2,4.207 -1.9,8.815 -1.9,13.924c0,5.41 0.7,10.519 2.1,15.227c1.4,4.709 3.299,8.816 5.699,12.322c2.4,3.506 5.199,6.311 8.498,8.315c3.2,2.004 6.699,3.105 10.399,3.105c3.599,0 7.098,-0.901 10.498,-2.604c3.399,-1.703 6.098,-3.807 8.198,-6.111l0,-42.075l0,0Z" style="fill:#171b60;fill-rule:nonzero;"/></g><g><path d="M486.911,340.003l0,52.993l-18.597,0l0,-110.495l18.597,0l0,50.289l55.389,0l0,-50.289l18.597,0l0,110.495l-18.597,0l0,-52.993l-55.389,0Z" style="fill:#171b60;fill-rule:nonzero;"/><path d="M620.386,394.8c-6.599,0 -12.598,-1.102 -18.097,-3.406c-5.499,-2.304 -10.298,-5.41 -14.297,-9.317c-3.999,-3.907 -7.099,-8.515 -9.298,-13.724c-2.2,-5.209 -3.3,-10.819 -3.3,-16.83c0,-6.311 1.1,-12.122 3.3,-17.631c2.199,-5.51 5.299,-10.319 9.298,-14.426c3.999,-4.107 8.699,-7.413 14.297,-9.717c5.499,-2.404 11.498,-3.606 18.097,-3.606c6.399,0 12.398,1.101 17.897,3.305c5.499,2.204 10.198,5.21 14.197,8.916c4,3.807 7.099,8.215 9.299,13.224c2.299,5.109 3.399,10.518 3.399,16.329c0,6.511 -1.1,12.622 -3.399,18.232c-2.3,5.71 -5.399,10.619 -9.299,14.926c-3.999,4.308 -8.698,7.614 -14.197,10.118c-5.499,2.405 -11.498,3.607 -17.897,3.607Zm3.2,-6.211c3.299,0 6.398,-0.802 9.098,-2.505c2.799,-1.703 5.099,-4.007 7.099,-6.912c1.999,-2.905 3.599,-6.311 4.699,-10.118c1.1,-3.807 1.699,-7.914 1.699,-12.222c0,-6.211 -0.499,-12.021 -1.599,-17.33c-1.1,-5.41 -2.8,-10.018 -5.099,-14.025c-2.4,-4.007 -5.499,-7.113 -9.299,-9.417c-3.799,-2.304 -8.498,-3.506 -13.997,-3.506c-2.9,0 -5.599,0.801 -8.299,2.504c-2.599,1.703 -4.999,3.907 -6.998,6.712c-2,2.805 -3.7,6.111 -4.899,9.918c-1.2,3.807 -1.8,7.814 -1.8,12.121c0,6.211 0.7,12.022 2,17.431c1.299,5.41 3.199,10.218 5.699,14.326c2.499,4.107 5.499,7.313 9.198,9.617c3.599,2.304 7.798,3.406 12.498,3.406Z" style="fill:#171b60;fill-rule:nonzero;"/><path d="M675.576,307.846l16.897,0l0,16.128c1.7,-2.304 3.399,-4.608 5.299,-6.712c1.9,-2.103 3.799,-4.107 5.899,-5.71c2,-1.703 4.199,-3.005 6.399,-3.907c2.199,-0.901 4.499,-1.402 6.698,-1.402c1.8,0 3.5,0.3 5.1,0.801c1.599,0.601 2.999,1.302 4.199,2.204c1.2,0.902 2.099,2.004 2.799,3.206c0.7,1.202 1,2.504 1,3.907c0,2.704 -0.8,4.808 -2.499,6.211c-1.7,1.402 -4.1,2.103 -7.199,2.103c-1.9,0 -3.4,-0.2 -4.599,-0.601c-1.2,-0.4 -2.2,-0.901 -3.1,-1.402c-0.9,-0.501 -1.799,-0.902 -2.799,-1.403c-0.9,-0.4 -2.1,-0.601 -3.6,-0.601c-2.299,0 -4.499,1.202 -6.698,3.707c-2.2,2.504 -4.499,5.71 -6.999,9.517l0,59.004l-16.897,0l0,-85.05l0.1,0Z" style="fill:#171b60;fill-rule:nonzero;"/><path d="M743.864,264.168c1.399,0 2.599,0.201 3.799,0.701c1.2,0.501 2.199,1.102 3.099,1.904c0.9,0.801 1.6,1.703 2.1,2.705c0.5,1.001 0.8,2.103 0.8,3.205c0,1.102 -0.3,2.204 -0.8,3.306c-0.5,1.102 -1.2,2.004 -2.1,2.705c-0.9,0.801 -1.899,1.402 -3.099,1.803c-1.2,0.501 -2.4,0.701 -3.799,0.701c-2.6,0 -4.9,-0.801 -6.799,-2.504c-1.9,-1.703 -2.8,-3.707 -2.8,-6.011c0,-1.102 0.3,-2.204 0.8,-3.205c0.5,-1.002 1.2,-1.904 2.1,-2.705c0.9,-0.802 1.899,-1.403 3.099,-1.904c1.1,-0.5 2.3,-0.701 3.6,-0.701Zm-8.299,46.783l11.898,-4.909l4.999,0l0,86.954l-16.897,0l0,-82.045Z" style="fill:#171b60;fill-rule:nonzero;"/><path d="M758.161,388.589l61.189,-73.631l-61.189,0l0,-7.112l85.284,0l0,3.606l-62.688,74.432l62.688,0l0,7.112l-85.284,0l0,-4.407Z" style="fill:#171b60;fill-rule:nonzero;"/><path d="M889.937,394.8c-6.599,0 -12.598,-1.102 -18.097,-3.406c-5.499,-2.304 -10.298,-5.41 -14.297,-9.317c-4,-3.907 -7.099,-8.515 -9.299,-13.724c-2.199,-5.209 -3.299,-10.819 -3.299,-16.83c0,-6.311 1.1,-12.122 3.299,-17.631c2.2,-5.51 5.299,-10.319 9.299,-14.426c3.999,-4.107 8.698,-7.413 14.297,-9.717c5.499,-2.404 11.498,-3.606 18.097,-3.606c6.399,0 12.397,1.101 17.896,3.305c5.499,2.204 10.199,5.21 14.198,8.916c3.999,3.807 7.099,8.215 9.298,13.224c2.3,5.109 3.399,10.518 3.399,16.329c0,6.511 -1.099,12.622 -3.399,18.232c-2.299,5.71 -5.399,10.619 -9.298,14.926c-3.999,4.308 -8.699,7.614 -14.198,10.118c-5.499,2.405 -11.497,3.607 -17.896,3.607Zm3.199,-6.211c3.3,0 6.399,-0.802 9.098,-2.505c2.8,-1.703 5.1,-4.007 7.099,-6.912c2,-2.905 3.599,-6.311 4.699,-10.118c1.1,-3.807 1.7,-7.914 1.7,-12.222c0,-6.211 -0.5,-12.021 -1.6,-17.33c-1.1,-5.41 -2.799,-10.018 -5.199,-14.025c-2.399,-4.007 -5.499,-7.113 -9.298,-9.417c-3.799,-2.304 -8.499,-3.506 -13.998,-3.506c-2.899,0 -5.598,0.801 -8.298,2.504c-2.6,1.703 -4.999,3.907 -6.999,6.712c-1.999,2.805 -3.699,6.111 -4.899,9.918c-1.2,3.807 -1.799,7.814 -1.799,12.121c0,6.211 0.699,12.022 1.999,17.431c1.3,5.41 3.2,10.218 5.699,14.326c2.5,4.107 5.499,7.313 9.198,9.617c3.7,2.304 7.899,3.406 12.598,3.406Z" style="fill:#171b60;fill-rule:nonzero;"/><path d="M945.127,307.846l16.996,0l0,15.527c5.1,-5.71 10.499,-10.018 15.998,-12.923c5.499,-2.905 11.197,-4.307 16.896,-4.307c2.9,0 5.699,0.701 8.299,2.003c2.599,1.403 4.899,3.206 6.799,5.51c1.899,2.304 3.499,5.009 4.599,8.114c1.1,3.106 1.7,6.512 1.7,10.018l0,61.208l-16.897,0l0,-58.303c0,-5.71 -1.3,-9.917 -3.8,-12.823c-2.499,-2.905 -5.799,-4.407 -9.798,-4.407c-3.599,0 -7.499,1.102 -11.798,3.406c-4.199,2.304 -8.298,5.209 -12.098,8.915l0,63.112l-16.996,0l0,-85.05l0.1,0Z" style="fill:#171b60;fill-rule:nonzero;"/><path d="M1057.21,388.989c2.3,0 4.399,-0.4 6.299,-1.102c1.999,-0.701 3.599,-1.703 4.999,-2.805c1.4,-1.202 2.499,-2.504 3.299,-4.007c0.8,-1.502 1.2,-3.105 1.2,-4.608c0,-2.604 -0.7,-4.909 -2,-6.812c-1.299,-1.903 -2.999,-3.606 -5.099,-5.109c-2.099,-1.503 -4.499,-2.905 -7.198,-4.207c-2.7,-1.303 -5.499,-2.605 -8.399,-4.008c-2.899,-1.302 -5.699,-2.804 -8.398,-4.307c-2.7,-1.503 -5.099,-3.306 -7.199,-5.41c-2.099,-2.003 -3.799,-4.408 -5.099,-7.112c-1.3,-2.705 -2,-5.811 -2,-9.417c0,-3.406 0.7,-6.512 2.1,-9.417c1.4,-2.905 3.499,-5.409 6.099,-7.513c2.599,-2.104 5.699,-3.807 9.198,-5.009c3.5,-1.202 7.399,-1.803 11.698,-1.803c2.8,0 5.399,0.2 7.899,0.601c2.499,0.401 4.899,1.102 7.198,2.304c2.4,1.102 4.699,2.705 7.099,4.809c2.3,2.103 4.799,4.808 7.399,8.114l-6.199,5.51c-3.2,-5.21 -6.799,-9.116 -10.798,-11.721c-3.999,-2.605 -8.199,-3.907 -12.698,-3.907c-2.399,0 -4.599,0.301 -6.599,0.902c-1.999,0.601 -3.699,1.402 -5.099,2.404c-1.399,1.002 -2.499,2.204 -3.299,3.606c-0.8,1.403 -1.2,2.805 -1.2,4.408c0,3.406 1.2,6.211 3.699,8.515c2.5,2.304 5.499,4.308 9.199,6.111c3.699,1.803 7.598,3.606 11.898,5.309c4.299,1.703 8.298,3.707 11.897,6.011c3.7,2.304 6.699,5.009 9.199,8.114c2.399,3.206 3.699,7.113 3.699,11.922c0,3.606 -0.7,7.012 -2,10.117c-1.299,3.106 -3.299,5.811 -6.099,8.115c-2.699,2.304 -6.098,4.107 -10.198,5.409c-4.099,1.303 -8.798,2.004 -14.297,2.004c-2.5,0 -5.099,-0.2 -7.699,-0.601c-2.599,-0.401 -5.299,-1.102 -7.898,-2.304c-2.6,-1.102 -5.299,-2.705 -7.999,-4.809c-2.699,-2.103 -5.299,-4.808 -7.898,-8.114l6.898,-6.211c2,2.905 4,5.309 5.899,7.413c1.9,2.004 3.8,3.707 5.799,5.009c2,1.302 4,2.204 6.099,2.805c1.9,0.501 4.199,0.801 6.599,0.801Z" style="fill:#171b60;fill-rule:nonzero;"/></g><path d="M525.204,184.327c96.482,0 187.065,8.314 263.251,20.536c-23.095,-116.807 -125.877,-204.863 -249.154,-204.863c-123.177,0 -225.958,87.956 -249.154,204.563c66.188,-11.12 147.173,-20.236 235.057,-20.236Z" style="fill:#171b60;fill-rule:nonzero;"/><path d="M118.578,254.952c0,0 176.968,-59.005 401.527,-59.005c199.463,0 368.732,35.463 440.119,65.116c-123.278,-36.164 -441.219,-58.704 -532.502,-41.875c94.482,-5.71 199.663,3.106 262.851,27.649c-80.385,-12.221 -106.78,-14.225 -187.865,-14.225c-66.388,0 -119.878,7.413 -175.668,22.24c49.091,-21.639 67.788,-23.242 113.279,-28.851c-87.084,-16.029 -321.741,28.951 -321.741,28.951Z" style="fill:#171b60;fill-rule:nonzero;"/></g></svg>