<svg viewBox="0 0 1459.95 611.81" xmlns="http://www.w3.org/2000/svg" xmlns:xlink="http://www.w3.org/1999/xlink"><linearGradient id="a" gradientUnits="userSpaceOnUse" x1="721.91" x2="721.91" y2="273.8"><stop offset="0" stop-color="#00aae7"/><stop offset=".23" stop-color="#00a7e4"/><stop offset=".4" stop-color="#029edc"/><stop offset=".54" stop-color="#048ecd"/><stop offset=".67" stop-color="#0878b8"/><stop offset=".8" stop-color="#0d5c9d"/><stop offset=".92" stop-color="#12397c"/><stop offset="1" stop-color="#171b60"/></linearGradient><linearGradient id="b" gradientUnits="userSpaceOnUse" x1="721.91" x2="721.91" y1="261.89" y2="348.93"><stop offset="0" stop-color="#933c91"/><stop offset=".15" stop-color="#8d3a8f"/><stop offset=".35" stop-color="#7b3688"/><stop offset=".58" stop-color="#5e2e7c"/><stop offset=".83" stop-color="#36236c"/><stop offset="1" stop-color="#171b60"/></linearGradient><path d="m0 377.67h59.53a83.29 83.29 0 0 1 21.66 2.65 55.74 55.74 0 0 1 16.89 7.42 35.85 35.85 0 0 1 11 11.44 28.37 28.37 0 0 1 3.92 14.7 41.69 41.69 0 0 1 -1.29 10.83 26.34 26.34 0 0 1 -4.32 8.86 35.06 35.06 0 0 1 -8.26 7.73 96.09 96.09 0 0 1 -13.13 7.42v.45a51.06 51.06 0 0 1 14.24 4.24 38.13 38.13 0 0 1 10.91 7.65 31.88 31.88 0 0 1 7 10.76 36.63 36.63 0 0 1 2.42 13.56 34.75 34.75 0 0 1 -3.64 15.75 37.6 37.6 0 0 1 -10.38 12.65 51.22 51.22 0 0 1 -16.28 8.48 68.81 68.81 0 0 1 -21.36 3.11h-68.91zm24.84 66.5h31.66a38.56 38.56 0 0 0 13.25-2.12 27.94 27.94 0 0 0 9.77-5.83 25.22 25.22 0 0 0 6.06-8.86 29.15 29.15 0 0 0 2.12-11.21 28.13 28.13 0 0 0 -2.42-11.82 22.47 22.47 0 0 0 -7.65-9 39.68 39.68 0 0 0 -13.25-5.76 78.13 78.13 0 0 0 -19.09-2h-20.45zm0 70.44h26.82a75.52 75.52 0 0 0 18.78-2 38.7 38.7 0 0 0 13.1-5.83 23.79 23.79 0 0 0 7.73-9 26.18 26.18 0 0 0 2.5-11.44 38 38 0 0 0 -2.2-13 24.91 24.91 0 0 0 -7.27-10.45 37 37 0 0 0 -13.26-7q-8.18-2.57-20.15-2.58h-26.05z" fill="#933c91"/><path d="m131.31 411.45h22.57v21.55a111.41 111.41 0 0 1 7.12-9 65.62 65.62 0 0 1 7.88-7.65 35.48 35.48 0 0 1 8.56-5.23 22.92 22.92 0 0 1 9-1.89 20.75 20.75 0 0 1 6.89 1.14 19.64 19.64 0 0 1 5.61 3 13.75 13.75 0 0 1 3.71 4.32 10.77 10.77 0 0 1 1.36 5.23q0 5.45-3.41 8.33t-9.6 2.75a18.7 18.7 0 0 1 -6.14-.83 29.09 29.09 0 0 1 -4.17-1.82q-1.82-1-3.71-1.82a11.91 11.91 0 0 0 -4.77-.83q-4.54 0-9 5a94.63 94.63 0 0 0 -9.32 12.72v78.92h-22.58z" fill="#933c91"/><path d="m263.68 527.79a63.15 63.15 0 0 1 -24.24-4.55 58.85 58.85 0 0 1 -19.09-12.42 56.28 56.28 0 0 1 -12.5-18.41 56.94 56.94 0 0 1 -4.47-22.5 62.45 62.45 0 0 1 4.47-23.63 58.38 58.38 0 0 1 31.59-32.28 60.52 60.52 0 0 1 24.24-4.77 64.27 64.27 0 0 1 23.93 4.39 58.61 58.61 0 0 1 19 12 55.65 55.65 0 0 1 12.5 17.72 52.77 52.77 0 0 1 4.54 21.81 65 65 0 0 1 -4.54 24.39 63.69 63.69 0 0 1 -12.5 19.92 57.57 57.57 0 0 1 -19 13.48 58.19 58.19 0 0 1 -23.93 4.85zm4.24-8.33a22.79 22.79 0 0 0 12.19-3.41 31.93 31.93 0 0 0 9.54-9.24 47.21 47.21 0 0 0 6.29-13.56 57.72 57.72 0 0 0 2.27-16.36 119.84 119.84 0 0 0 -2.12-23.18 58.8 58.8 0 0 0 -6.89-18.78 36 36 0 0 0 -12.42-12.65q-7.65-4.62-18.71-4.62a20.49 20.49 0 0 0 -11.07 3.34 33.72 33.72 0 0 0 -9.39 9 47 47 0 0 0 -6.51 13.25 52.88 52.88 0 0 0 -2.42 16.21 98.53 98.53 0 0 0 2.65 23.33 66.41 66.41 0 0 0 7.67 19.1 39.56 39.56 0 0 0 12.27 12.88 30 30 0 0 0 16.65 4.69z" fill="#933c91"/><path d="m421.49 525.37h-22.72v-15.6q-3.94 3-7.8 6.29a55.12 55.12 0 0 1 -8.41 5.83 49.45 49.45 0 0 1 -10 4.24 43.68 43.68 0 0 1 -12.72 1.67 31.61 31.61 0 0 1 -12-2.2 27.42 27.42 0 0 1 -9.17-6 26.08 26.08 0 0 1 -5.83-8.94 30.07 30.07 0 0 1 -2-11.21 28.93 28.93 0 0 1 3-13.25 37.87 37.87 0 0 1 8-10.53 54.27 54.27 0 0 1 11.67-8.26 123.09 123.09 0 0 1 14.05-6.41q7.57-2.88 15.6-5.07t15.6-4.17v-7.12a48.8 48.8 0 0 0 -1.52-13.18 21.78 21.78 0 0 0 -4.39-8.56 16.45 16.45 0 0 0 -7-4.7 27.28 27.28 0 0 0 -9.09-1.44 24.7 24.7 0 0 0 -9.39 1.51 14.66 14.66 0 0 0 -5.68 3.94 13.38 13.38 0 0 0 -2.8 5.53 26.35 26.35 0 0 0 -.76 6.29 35 35 0 0 1 -.45 5.76 12.85 12.85 0 0 1 -1.74 4.77 10 10 0 0 1 -3.48 3.33 11.89 11.89 0 0 1 -14.09-2.5 14.1 14.1 0 0 1 -3.26-9.54 17.17 17.17 0 0 1 3.71-10.53 32.07 32.07 0 0 1 10-8.48 57.26 57.26 0 0 1 14.62-5.61 73.51 73.51 0 0 1 17.57-2 72.54 72.54 0 0 1 18.99 2.07 32.57 32.57 0 0 1 12.5 6.14 23.23 23.23 0 0 1 6.89 9.54 34.25 34.25 0 0 1 2.12 12.35zm-22.72-66.37q-7.27 2.27-15.3 5.68a91.84 91.84 0 0 0 -14.69 7.8 50.82 50.82 0 0 0 -11.06 9.62 17.21 17.21 0 0 0 -4.39 11.28 20.83 20.83 0 0 0 1.51 8 21.49 21.49 0 0 0 4.09 6.51 20.24 20.24 0 0 0 5.91 4.47 15.37 15.37 0 0 0 7 1.67 27.14 27.14 0 0 0 13.94-3.71 136.24 136.24 0 0 0 13-8.71z" fill="#933c91"/><path d="m524.47 514.31a57.94 57.94 0 0 1 -8.47 5.69 63.93 63.93 0 0 1 -19.47 6.89 55.31 55.31 0 0 1 -9.77.91 39.78 39.78 0 0 1 -18.76-4.63 49.25 49.25 0 0 1 -15.3-12.57 61.9 61.9 0 0 1 -10.3-18.48 65 65 0 0 1 -3.79-22.19 56.69 56.69 0 0 1 4.7-22.5 64.26 64.26 0 0 1 32-33.1 53.64 53.64 0 0 1 23.18-5.15 34.31 34.31 0 0 1 14.51 2.88 45.21 45.21 0 0 1 11.51 7.73v-60.15l15.91-6.51h6.58v174.66h-22.53zm0-66.65a29.29 29.29 0 0 0 -2.5-12.19 31 31 0 0 0 -6.51-9.47 29.82 29.82 0 0 0 -9.09-6.14 25.48 25.48 0 0 0 -22.95 1.14 32.37 32.37 0 0 0 -10.3 9.39 47.42 47.42 0 0 0 -6.89 14.47 64.93 64.93 0 0 0 -2.5 18.56 71.42 71.42 0 0 0 2.8 20.37 57.84 57.84 0 0 0 7.65 16.51 39 39 0 0 0 11.36 11.14 25.74 25.74 0 0 0 13.94 4.09 30.13 30.13 0 0 0 14-3.48 38.28 38.28 0 0 0 11-8.18z" fill="#933c91"/><path d="m651.66 454.47v70.9h-24.84v-147.7h24.84v67.26h74.23v-67.26h24.84v147.7h-24.84v-70.9z" fill="#00aae7"/><path d="m830.38 527.79a63.14 63.14 0 0 1 -24.24-4.55 58.85 58.85 0 0 1 -19.09-12.42 56.23 56.23 0 0 1 -12.5-18.41 56.92 56.92 0 0 1 -4.47-22.5 62.42 62.42 0 0 1 4.47-23.63 58.38 58.38 0 0 1 31.59-32.28 60.51 60.51 0 0 1 24.24-4.77 64.27 64.27 0 0 1 23.94 4.39 58.65 58.65 0 0 1 19 12 55.67 55.67 0 0 1 12.5 17.72 52.79 52.79 0 0 1 4.54 21.81 65.08 65.08 0 0 1 -4.54 24.39 63.72 63.72 0 0 1 -12.5 19.92 57.61 57.61 0 0 1 -19 13.48 58.19 58.19 0 0 1 -23.94 4.85zm4.24-8.33a22.79 22.79 0 0 0 12.19-3.41 31.93 31.93 0 0 0 9.54-9.24 47.17 47.17 0 0 0 6.29-13.56 57.72 57.72 0 0 0 2.27-16.36 119.71 119.71 0 0 0 -2.12-23.18 58.76 58.76 0 0 0 -6.89-18.78 36 36 0 0 0 -12.42-12.65q-7.65-4.62-18.71-4.62a20.48 20.48 0 0 0 -11.05 3.34 33.72 33.72 0 0 0 -9.39 9 47.08 47.08 0 0 0 -6.51 13.25 52.88 52.88 0 0 0 -2.42 16.21 98.53 98.53 0 0 0 2.6 23.34 66.46 66.46 0 0 0 7.65 19.09 39.56 39.56 0 0 0 12.35 12.88 30 30 0 0 0 16.62 4.69z" fill="#00aae7"/><path d="m904.28 411.45h22.57v21.55a111.78 111.78 0 0 1 7.12-9 65.64 65.64 0 0 1 7.88-7.65 35.45 35.45 0 0 1 8.56-5.23 22.91 22.91 0 0 1 9-1.89 20.74 20.74 0 0 1 6.89 1.14 19.62 19.62 0 0 1 5.61 3 13.76 13.76 0 0 1 3.71 4.32 10.77 10.77 0 0 1 1.36 5.23q0 5.45-3.41 8.33t-9.57 2.75a18.7 18.7 0 0 1 -6.14-.83 29.19 29.19 0 0 1 -4.17-1.82q-1.82-1-3.71-1.82a11.91 11.91 0 0 0 -4.77-.83q-4.54 0-9 5a94.63 94.63 0 0 0 -9.32 12.72v78.92h-22.61z" fill="#00aae7"/><path d="m995.74 353.13a14 14 0 0 1 5.08.91 12.9 12.9 0 0 1 6.89 6.14 9.29 9.29 0 0 1 1.06 4.32 9.74 9.74 0 0 1 -1.06 4.39 11.71 11.71 0 0 1 -2.8 3.64 13.77 13.77 0 0 1 -4.09 2.42 14 14 0 0 1 -5.08.91 13.27 13.27 0 0 1 -9.09-3.33 10.32 10.32 0 0 1 -3.79-8 9.25 9.25 0 0 1 1.06-4.32 13 13 0 0 1 2.8-3.64 12.89 12.89 0 0 1 4.09-2.5 13.53 13.53 0 0 1 4.93-.94zm-11.06 62.56 15.91-6.51h6.67v116.19h-22.58z" fill="#00aae7"/><path d="m1014.95 519.46 82-98.47h-82v-9.54h114.22v4.85l-83.92 99.52h83.92v9.54h-114.22z" fill="#00aae7"/><path d="m1191.4 527.79a63.15 63.15 0 0 1 -24.24-4.55 58.85 58.85 0 0 1 -19.09-12.42 56.33 56.33 0 0 1 -12.5-18.41 57 57 0 0 1 -4.47-22.5 62.48 62.48 0 0 1 4.47-23.63 58.38 58.38 0 0 1 31.59-32.28 60.52 60.52 0 0 1 24.24-4.77 64.27 64.27 0 0 1 23.94 4.39 58.65 58.65 0 0 1 19 12 55.66 55.66 0 0 1 12.49 17.72 52.69 52.69 0 0 1 4.55 21.81 65 65 0 0 1 -4.55 24.39 63.71 63.71 0 0 1 -12.49 19.92 57.61 57.61 0 0 1 -19 13.48 58.19 58.19 0 0 1 -23.94 4.85zm4.24-8.33a22.8 22.8 0 0 0 12.2-3.41 31.94 31.94 0 0 0 9.55-9.24 47.25 47.25 0 0 0 6.28-13.56 57.49 57.49 0 0 0 2.28-16.36 120.23 120.23 0 0 0 -2.12-23.18 58.84 58.84 0 0 0 -6.9-18.78 36 36 0 0 0 -12.42-12.65q-7.65-4.62-18.71-4.62a20.49 20.49 0 0 0 -11.06 3.33 33.71 33.71 0 0 0 -9.39 9 46.91 46.91 0 0 0 -6.51 13.25 52.88 52.88 0 0 0 -2.43 16.21 98.53 98.53 0 0 0 2.65 23.33 66.37 66.37 0 0 0 7.65 19.09 39.56 39.56 0 0 0 12.29 12.9 30 30 0 0 0 16.64 4.69z" fill="#00aae7"/><path d="m1265.29 411.45h22.71v20.75q10.3-11.51 21.43-17.27a48.82 48.82 0 0 1 22.65-5.76 23.74 23.74 0 0 1 11.14 2.73 29.63 29.63 0 0 1 9.09 7.35 35.78 35.78 0 0 1 6.14 10.91 39.08 39.08 0 0 1 2.27 13.41v81.8h-22.57v-77.86q0-11.36-5.08-17.19a16.57 16.57 0 0 0 -13.1-5.83q-7.27 0-15.75 4.54a73.61 73.61 0 0 0 -16.22 11.97v84.38h-22.72z" fill="#00aae7"/><path d="m1415.39 519.92a24.49 24.49 0 0 0 8.48-1.44 22.32 22.32 0 0 0 6.74-3.79 17.83 17.83 0 0 0 4.39-5.38 13.22 13.22 0 0 0 1.59-6.21 15.8 15.8 0 0 0 -2.65-9.17 28 28 0 0 0 -6.94-6.93 67.35 67.35 0 0 0 -9.69-5.68q-5.46-2.65-11.21-5.3t-11.21-5.76a48.31 48.31 0 0 1 -9.69-7.2 33.74 33.74 0 0 1 -6.89-9.47 30.34 30.34 0 0 1 .23-25.3 29.94 29.94 0 0 1 8.1-10.07 39.73 39.73 0 0 1 12.36-6.62 48.18 48.18 0 0 1 15.6-2.42 69.27 69.27 0 0 1 10.53.76 34.79 34.79 0 0 1 9.7 3 40.84 40.84 0 0 1 9.47 6.44 79.64 79.64 0 0 1 9.85 10.83l-8.33 7.42q-6.51-10.45-14.47-15.68a31.21 31.21 0 0 0 -25.9-4 23.63 23.63 0 0 0 -6.89 3.26 15.39 15.39 0 0 0 -4.47 4.77 11.52 11.52 0 0 0 -1.59 5.91 14.81 14.81 0 0 0 4.92 11.36 51.78 51.78 0 0 0 12.27 8.18q7.35 3.64 16 7.12a105.22 105.22 0 0 1 16 8 45.85 45.85 0 0 1 12.27 10.91q4.92 6.36 4.92 15.91a34.57 34.57 0 0 1 -2.65 13.56 28.88 28.88 0 0 1 -8.1 10.91 39.81 39.81 0 0 1 -13.63 7.27 62.07 62.07 0 0 1 -19.09 2.65 73 73 0 0 1 -10.3-.76 42 42 0 0 1 -10.61-3 49.21 49.21 0 0 1 -10.68-6.44 59.77 59.77 0 0 1 -10.53-10.83l9.24-8.33a97.77 97.77 0 0 0 7.88 9.85 41.7 41.7 0 0 0 7.73 6.67 29.82 29.82 0 0 0 8.18 3.79 32.88 32.88 0 0 0 9.07 1.21z" fill="#00aae7"/><path d="m703 246.38c129.27 0 250.56 11.1 352.58 27.42-30.91-156.09-168.58-273.8-333.7-273.8s-302.57 117.5-333.62 273.39c88.47-14.82 196.99-27.01 314.74-27.01z" fill="url(#a)"/><path d="m158.31 340.74s237-78.84 537.75-78.84c267.15 0 493.8 47.45 589.46 87-165.09-48.33-590.95-78.33-713.12-55.9 126.48-7.67 267.37 4.19 352 37-107.72-16.37-143.06-19-251.64-19-88.92 0-160.49 9.88-235.27 29.72 65.72-28.89 90.74-31.1 151.69-38.59-116.51-21.51-430.87 38.61-430.87 38.61z" fill="url(#b)"/><g fill="#878a8f"><path d="m16.07 568.39c8.17 0 13.71 5.36 13.71 13.3s-5.59 13.31-13.78 13.31h-10.44v16.11h-4v-42.72zm-10.51 23h9.57c6.58 0 10.51-3.64 10.51-9.71s-3.91-9.68-10.51-9.68h-9.57z"/><path d="m61.25 599.52c.44 5.12 5.27 8.62 12 8.62 6.4 0 11-3.5 11-8.29 0-4-2.75-6.37-9.09-8l-5.3-1.36c-7.91-2-11.43-5.36-11.43-11 0-6.9 6.22-11.82 14.63-11.82s14.42 4.92 14.66 11.7h-4.11c-.38-4.83-4.65-8-10.72-8s-10.31 3.29-10.31 8c0 3.67 2.67 5.83 8.94 7.43l4.62 1.2c8.59 2.16 12.2 5.45 12.2 11.4 0 7.49-6 12.41-15.49 12.41-8.94 0-15.22-4.95-15.67-12.29z"/><path d="m129.61 611.13v-18.48l-15.31-24.26h4.62l12.65 20.29h.15l12.65-20.29h4.63l-15.31 24.26v18.48z"/><path d="m173.21 589.65c0-13.39 7.43-21.95 19-21.95 9 0 16.17 5.89 17.33 14.25h-4.06c-1.18-6.16-6.63-10.48-13.27-10.48-9.06 0-14.9 7.08-14.9 18.19s5.88 18.34 14.97 18.34c6.81 0 12-3.64 13.24-9.57h4.06c-1.51 8.32-8.06 13.33-17.33 13.33-11.64.05-19.04-8.57-19.04-22.11z"/><path d="m268.22 611.13v-20.05h-25v20.05h-4v-42.74h4v19h25v-19h4.06v42.74z"/><path d="m341.06 589.77c0 13.54-7.49 22-19.43 22s-19.4-8.5-19.4-22 7.49-22.06 19.4-22.06 19.43 8.53 19.43 22.06zm-34.68 0c0 11.2 5.89 18.27 15.25 18.27s15.28-7.08 15.28-18.27-5.92-18.3-15.28-18.3-15.25 7.08-15.25 18.3z"/><path d="m379.39 611.13v-39.07h-14.1v-3.67h32.28v3.67h-14.13v39.07z"/><path d="m455.36 611.13v-20.05h-25v20.05h-4v-42.74h4v19h25v-19h4.06v42.74z"/><path d="m516.88 611.13h-25.8v-42.74h25.8v3.67h-21.77v15.37h20.67v3.57h-20.67v16.41h21.77z"/><path d="m551.48 611.13h-4v-42.74h15.08c8.35 0 13.68 4.89 13.68 12.5 0 6-3.44 10.6-9.15 12.08l10.37 18.16h-4.74l-9.83-17.5h-11.41zm0-21.09h10.72c6.22 0 9.83-3.32 9.83-9s-3.76-9-10-9h-10.55z"/><path d="m630.11 598h-17.94l-4.74 13.09h-4.29l16-42.74h4l16 42.74h-4.26zm-16.73-3.5h15.52l-7.67-21.15h-.18z"/><path d="m682 568.39c8.17 0 13.71 5.36 13.71 13.3s-5.56 13.31-13.71 13.31h-10.48v16.11h-4v-42.72zm-10.51 23h9.57c6.58 0 10.51-3.64 10.51-9.71s-3.88-9.68-10.48-9.68h-9.57z"/><path d="m751 611.13h-25.8v-42.74h25.8v3.67h-21.75v15.37h20.67v3.57h-20.67v16.41h21.75z"/><path d="m785.62 596c0 7.17 4.68 12.08 12.5 12.08s12.5-4.92 12.5-12.08v-27.61h4.06v27.81c0 9.21-6.28 15.61-16.56 15.61s-16.53-6.4-16.53-15.61v-27.81h4z"/><path d="m857.53 611.13v-39.07h-14.1v-3.67h32.28v3.67h-14.12v39.07z"/><path d="m904.48 611.13v-42.74h4v42.74z"/><path d="m938.45 589.65c0-13.39 7.43-21.95 19-21.95 9 0 16.17 5.89 17.33 14.25h-4.06c-1.18-6.16-6.63-10.48-13.27-10.48-9.06 0-14.9 7.08-14.9 18.19s5.88 18.34 14.97 18.34c6.81 0 12-3.64 13.24-9.57h4.06c-1.51 8.32-8.06 13.33-17.33 13.33-11.64.05-19.04-8.57-19.04-22.11z"/><path d="m1042.08 599.52c.44 5.12 5.27 8.62 12 8.62 6.4 0 11-3.5 11-8.29 0-4-2.75-6.37-9.09-8l-5.3-1.36c-7.91-2-11.43-5.36-11.43-11 0-6.9 6.22-11.82 14.63-11.82s14.42 4.92 14.66 11.7h-4.06c-.38-4.83-4.65-8-10.72-8s-10.31 3.29-10.31 8c0 3.67 2.67 5.83 8.94 7.43l4.6 1.2c8.59 2.16 12.2 5.45 12.2 11.4 0 7.49-6 12.41-15.49 12.41-8.94 0-15.22-4.95-15.67-12.29z"/><path d="m1124.57 611.13h-25.8v-42.74h25.8v3.67h-21.77v15.37h20.67v3.57h-20.67v16.41h21.77z"/><path d="m1159.17 611.13h-4v-42.74h15.08c8.35 0 13.68 4.89 13.68 12.5 0 6-3.44 10.6-9.15 12.08l10.37 18.16h-4.74l-9.83-17.5h-11.37zm0-21.09h10.72c6.22 0 9.83-3.32 9.83-9s-3.76-9-10-9h-10.57z"/><path d="m1226.82 611.13-16-42.74h4.29l13.62 37.7h.18l13.65-37.7h4.27l-16 42.74z"/><path d="m1275.19 611.13v-42.74h4v42.74z"/><path d="m1309.16 589.65c0-13.39 7.43-21.95 19-21.95 9 0 16.17 5.89 17.33 14.25h-4.06c-1.18-6.16-6.63-10.48-13.27-10.48-9.06 0-14.9 7.08-14.9 18.19s5.83 18.39 14.93 18.39c6.81 0 12-3.64 13.24-9.57h4.06c-1.51 8.32-8.06 13.33-17.33 13.33-11.6 0-19-8.62-19-22.16z"/><path d="m1400.95 611.13h-25.8v-42.74h25.8v3.67h-21.77v15.37h20.67v3.57h-20.67v16.41h21.77z"/><path d="m1432.85 599.52c.44 5.12 5.27 8.62 12 8.62 6.4 0 11-3.5 11-8.29 0-4-2.75-6.37-9.09-8l-5.3-1.36c-7.91-2-11.43-5.36-11.43-11 0-6.9 6.22-11.82 14.63-11.82s14.42 4.92 14.66 11.7h-4.06c-.38-4.83-4.65-8-10.72-8s-10.31 3.29-10.31 8c0 3.67 2.67 5.83 8.94 7.43l4.62 1.18c8.59 2.16 12.2 5.45 12.2 11.4 0 7.49-6 12.41-15.49 12.41-8.94 0-15.22-4.95-15.67-12.29z"/></g></svg>