<svg viewBox="0 0 60 60" xmlns="http://www.w3.org/2000/svg"><g fill="#933d92"><path d="M30 5a25 25 0 1 0 25 25A25 25 0 0 0 30 5zm0 48.48A23.48 23.48 0 1 1 53.48 30 23.5 23.5 0 0 1 30 53.48z"/><path d="M40.34 19.44a10.34 10.34 0 0 1 1.31 4.47 1.62 1.62 0 0 1 0 .76c-.63 1.24 0 2.23.6 3.21.42.68.94 1.3 1.38 2s.41 1.24-.5 1.52-1.3.53-.78 1.44c0 .08.06.24 0 .28-.7.65-.17 1.66-.71 2.39a1.91 1.91 0 0 0-.2 1.48c.21 1.21-.27 1.87-1.5 1.89s-2.3-.12-3.45-.15a2.12 2.12 0 0 0-2.4 1.74 4.31 4.31 0 0 0 .21 3.27c.16.32.25.66.38 1s0 .57-.44.56H21c-.4-.35-.2-.78-.11-1.16a9.65 9.65 0 0 1 1-2.3 20.34 20.34 0 0 0 1.37-3 4.68 4.68 0 0 0-.83-4.84c-2.68-3.08-3.37-6.78-3-10.7a9.09 9.09 0 0 1 4.87-7.18 13.22 13.22 0 0 1 14 1.07 14.79 14.79 0 0 1 2.04 2.25zm-8.59 10.77a3.87 3.87 0 0 0 2.48-1.51c.85-1.16 1.52-2.46 3-3a4 4 0 0 0 1.07-5 4.13 4.13 0 0 0-4.76-2.17 1.15 1.15 0 0 1-1.21-.15A4.89 4.89 0 0 0 24.21 21a1.3 1.3 0 0 1-.76 1 3.25 3.25 0 0 0 1.6 6.17 1.53 1.53 0 0 1 1.29.6 5 5 0 0 0 5.41 1.44zm-4.93-7.57a1.12 1.12 0 0 0-.92 1 1.2 1.2 0 0 0 .87 1.31c1 .06 1.45-.45 1.45-1.42-.31-.53-.68-1.04-1.4-.89zm6.62 0c-.75.18-.94.76-.94 1.44a1.2 1.2 0 0 0 1.44.8c.71-.18.9-.72.89-1.38-.3-.57-.67-1.03-1.39-.87zm-3.32 0c-.76.17-.92.76-.92 1.43a1.18 1.18 0 0 0 1.44.8 1.2 1.2 0 0 0 .89-1.38c-.32-.49-.7-1.01-1.41-.85z"/></g></svg>