<svg id="Training" xmlns="http://www.w3.org/2000/svg" viewBox="0 0 537.58 537.58"><defs><style>.cls-1{fill:#933d92;}</style></defs><title>Training_Icon</title><path class="cls-1" d="M423,380.47H403.06c-14.13,0-23.22,8-26.88,19.46a33.34,33.34,0,0,0-1.45,11.88h76.59a33.35,33.35,0,0,0-1.45-11.88C446.21,388.5,437.12,380.47,423,380.47Z" transform="translate(-15.21 -14.21)"/><path class="cls-1" d="M338.75,380.47H318.82c-14.13,0-23.22,8-26.88,19.46a33.34,33.34,0,0,0-1.45,11.88h76.59a33.35,33.35,0,0,0-1.45-11.88C362,388.5,352.88,380.47,338.75,380.47Z" transform="translate(-15.21 -14.21)"/><ellipse class="cls-1" cx="313.57" cy="336.42" rx="26.09" ry="24.37"/><ellipse class="cls-1" cx="397.82" cy="336.42" rx="26.09" ry="24.37"/><path class="cls-1" d="M252.29,380.47H232.36c-14.13,0-23.22,8-26.88,19.46A33.34,33.34,0,0,0,204,411.82h76.59a33.35,33.35,0,0,0-1.45-11.88C275.51,388.5,266.42,380.47,252.29,380.47Z" transform="translate(-15.21 -14.21)"/><ellipse class="cls-1" cx="227.12" cy="336.42" rx="26.09" ry="24.37"/><ellipse class="cls-1" cx="144.65" cy="167.44" rx="29.4" ry="27.47"/><ellipse class="cls-1" cx="145.09" cy="336.42" rx="26.09" ry="24.37"/><path class="cls-1" d="M170.27,380.47H150.33c-14.13,0-23.22,8-26.88,19.46A33.34,33.34,0,0,0,122,411.82H198.6a33.35,33.35,0,0,0-1.45-11.88C193.49,388.5,184.4,380.47,170.27,380.47Z" transform="translate(-15.21 -14.21)"/><path class="cls-1" d="M435.86,289V179.89a25.26,25.26,0,0,0-25.23-25.24H235a25.26,25.26,0,0,0-25.23,25.24v42.7l4.31,5.49,6.77-5.27V179.89A14.17,14.17,0,0,1,235,165.74H410.63a14.17,14.17,0,0,1,14.15,14.15V289a14.17,14.17,0,0,1-14.15,14.15H235A14.17,14.17,0,0,1,220.83,289v-3.26a25.18,25.18,0,0,1-11.08,2.65h0V289A25.26,25.26,0,0,0,235,314.27H410.63A25.26,25.26,0,0,0,435.86,289Z" transform="translate(-15.21 -14.21)"/><path class="cls-1" d="M216.54,272l39.9-31a11.08,11.08,0,0,0-13.61-17.5l-31.2,24.26-12.48-15.89c-5-10-14.46-16.6-28.07-16.6H148.63c-15.93,0-26.17,9-30.29,21.94a40.17,40.17,0,0,0-.73,20.43s7.89,34.69,12.82,53a8.66,8.66,0,0,0,12.16,5.53,41.57,41.57,0,0,1,34.83-.3,8.68,8.68,0,0,0,12.05-5.61c3.13-11.72,7.49-30.23,10.19-41.88l1.37,1.74a11.08,11.08,0,0,0,15.52,1.9Z" transform="translate(-15.21 -14.21)"/><path class="cls-1" d="M395.82,176.11H250.53a4.07,4.07,0,0,0,0,8.15H395.82a4.07,4.07,0,1,0,0-8.15Z" transform="translate(-15.21 -14.21)"/><path class="cls-1" d="M396.53,200.94H251.24a4.07,4.07,0,1,0,0,8.15H396.53a4.07,4.07,0,0,0,0-8.15Z" transform="translate(-15.21 -14.21)"/><path class="cls-1" d="M396.53,236.06a4.07,4.07,0,0,0,0-8.15l-113.81-.65h0a4.07,4.07,0,0,0,0,8.15l113.82.65Z" transform="translate(-15.21 -14.21)"/><path class="cls-1" d="M312.11,255.58a4.09,4.09,0,0,0-4.59,1.47L289.34,282.1l-18.46-12a4.08,4.08,0,0,0-4.58.09l-23.88,17a4.07,4.07,0,0,0,4.72,6.64l21.62-15.38L288.14,291a4.07,4.07,0,0,0,5.52-1l18.7-25.77,18.25,6.08a4.07,4.07,0,1,0,2.58-7.73Z" transform="translate(-15.21 -14.21)"/><path class="cls-1" d="M381.1,294.58a21.08,21.08,0,0,0,21.08-21.08H381.1V252.41a21.08,21.08,0,0,0,0,42.16Z" transform="translate(-15.21 -14.21)"/><path class="cls-1" d="M388.12,245.39v21.08h21.08A21.08,21.08,0,0,0,388.12,245.39Z" transform="translate(-15.21 -14.21)"/><path class="cls-1" d="M284,14.21C135.79,14.21,15.21,134.79,15.21,283S135.79,551.79,284,551.79,552.79,431.21,552.79,283,432.21,14.21,284,14.21Zm0,521.29C144.77,535.5,31.5,422.23,31.5,283S144.77,30.5,284,30.5,536.5,143.77,536.5,283,423.23,535.5,284,535.5Z" transform="translate(-15.21 -14.21)"/></svg>