<svg width="256" height="256" viewBox="0 0 60 60" xmlns="http://www.w3.org/2000/svg"><g fill="#933d92"><path d="m38.13 29.75a7.46 7.46 0 0 0 .24 2.25c.22 1.56.52 3.1.72 4.66.06.51-.13.51-.47.51-1.78 0-3.56 0-5.34 0-.46 0-.58-.19-.56-.61s0-1.14 0-1.7a1.23 1.23 0 0 1 .33-.91c.88-1.08 1.76-2.16 2.61-3.26a1.83 1.83 0 0 0 0-2.23 1.87 1.87 0 0 0 -2-.68 2.34 2.34 0 0 0 -1.24 1c-.26.39-.44.41-.8 0a2.32 2.32 0 0 0 -3.5 0c-.41.41-.59.34-.86-.06a2.16 2.16 0 0 0 -1.25-1 1.87 1.87 0 0 0 -2 .73 1.81 1.81 0 0 0 .1 2.23c.82 1.06 1.66 2.11 2.52 3.13a1.7 1.7 0 0 1 .42 1.2v8.36a7.47 7.47 0 0 0 .1 1.76c-.93-.08-1.35-.57-1.36-1.6 0-2.76 0-5.52 0-8.28a5.46 5.46 0 0 0 0-.7.6.6 0 0 0 -.59-.6.63.63 0 0 0 -.7.58 4 4 0 0 0 0 .69v7.9c0 1.42-.46 2.09-1.46 2.1s-1.51-.66-1.51-2.14v-12.07a.79.79 0 0 0 -.14-.48c-.15.42-.28.85-.43 1.27a1.47 1.47 0 0 1 -1.85 1.08 1.46 1.46 0 0 1 -1-2c.88-2.85 1.77-5.71 2.67-8.56a1.53 1.53 0 0 1 1.77-1.27h5.18a1.62 1.62 0 0 1 1.81 1.35c.25.83.51 1.65.77 2.48a.63.63 0 0 0 .41-.45 2 2 0 0 1 2.33-1.42c1.1.08 2.22 0 3.33 0a1.48 1.48 0 0 1 1.47.9c1.26 2.43 2.56 4.83 3.83 7.25a1.24 1.24 0 1 1 -2.15 1.16l-1.45-2.63z"/><path d="m29.78 39.3v4.47c0 1-.24 1.47-.84 1.47s-.84-.41-.85-1.46c0-3.07 0-6.14 0-9.21a1.63 1.63 0 0 0 -.39-1.12c-.88-1.05-1.73-2.12-2.59-3.19-.38-.47-.58-1 0-1.4s1-.1 1.32.36c.69.87 1.39 1.72 2.09 2.59a1.78 1.78 0 0 0 2.8 0c.69-.84 1.38-1.68 2-2.53.38-.48.82-.8 1.37-.37s.33.95 0 1.42c-.8 1-1.57 2-2.4 2.94a2.2 2.2 0 0 0 -.56 1.53v8.83.77c-.05.54-.32.88-.89.86a.78.78 0 0 1 -.78-.88c0-1.42 0-2.84 0-4.26-.01-.3.07-.58-.28-.82z"/><path d="m22.45 17.26a2.73 2.73 0 0 1 5.45.07 2.73 2.73 0 1 1 -5.45-.07z"/><path d="m34.46 22a2.38 2.38 0 0 1 -2.37-2.43 2.39 2.39 0 1 1 4.77 0 2.35 2.35 0 0 1 -2.4 2.43z"/><path d="m37.45 41.16v2.7s-.51 1.39-1.24 1.38-1.21-.52-1.21-1.4c0-1.8 0-3.61 0-5.41 0-.5.15-.68.66-.67 2.19.05 1.74-.29 1.79 1.7z"/><path d="m32.72 41.61c0-1.08 0-2.16 0-3.24 0-.49.19-.61.64-.61s.64.15.64.62v5.55a1.22 1.22 0 0 1 -.38 1c-.24.21-.51.43-.83.31s0-.45 0-.68c0-1 0-2 0-2.92z"/><path d="m29.87 31.9a1.43 1.43 0 0 1 -1.38-1.46 1.41 1.41 0 1 1 2.82.06 1.43 1.43 0 0 1 -1.44 1.4z"/><path d="m38.13 29.75-.05-.02.04.03z"/><path d="m30 5a25 25 0 1 0 25 25 25 25 0 0 0 -25-25zm0 48.48a23.48 23.48 0 1 1 23.48-23.48 23.5 23.5 0 0 1 -23.48 23.48z"/><path d="m30 5a25 25 0 1 0 25 25 25 25 0 0 0 -25-25zm0 48.48a23.48 23.48 0 1 1 23.48-23.48 23.5 23.5 0 0 1 -23.48 23.48z"/><path d="m30 5a25 25 0 1 0 25 25 25 25 0 0 0 -25-25zm0 48.48a23.48 23.48 0 1 1 23.48-23.48 23.5 23.5 0 0 1 -23.48 23.48z"/></g></svg>