<svg viewBox="0 0 60 60" xmlns="http://www.w3.org/2000/svg"><g fill="#933d92"><path d="m35.14 44.12a2 2 0 0 1 -1.58 1.27 1.89 1.89 0 0 1 -2.16-2c0-3.67 0-7.34 0-11 0-1.79 0-3.57 0-5.35a6.17 6.17 0 0 0 -1.31-4.27 4.65 4.65 0 0 1 1.31-.56c1.77-.15 3.54-.21 5.39-.31a3.5 3.5 0 0 0 1 3 3.18 3.18 0 0 0 3 .53c0 .46.1.87.11 1.28v6c0 1.79-.2 2.08-2 2.65v7.69c0 1.29-.44 2-1.38 2.29s-1.62-.1-2.38-1.22zm-5.14-18.8a2.64 2.64 0 0 0 -2.89-2.51c-.87 0-1.74 0-2.61 0h-1.2c-.32 3-1.05 3.58-4.23 3.37a.86.86 0 0 0 -.06.23v7.34a1.5 1.5 0 0 0 1.26 1.43c.54.1.64.35.63.84q0 3.66 0 7.34a1.91 1.91 0 0 0 2.1 2.04 2 2 0 0 0 1.66-1.33 2 2 0 0 0 1.52 1.31 1.87 1.87 0 0 0 2.22-2q0-7.15 0-14.32c0-.26 0-.51 0-.81l1.7.39a29.85 29.85 0 0 0 -.1-3.32zm-1.91-6.62a3.33 3.33 0 1 0 -6.65 0 3.33 3.33 0 0 0 6.65 0zm3.58-.82a3.32 3.32 0 0 0 3.33 3.35 3.33 3.33 0 1 0 -3.29-3.35zm-9.67 4.42a.86.86 0 0 0 -1.26-.61 13 13 0 0 0 -1.74.8 1 1 0 0 0 -.5 1.16 1.86 1.86 0 0 0 1.93 1.65 1.92 1.92 0 0 0 1.81-2.09 7.93 7.93 0 0 0 -.24-.91zm15.84.21a1.91 1.91 0 0 0 1.81 2.08 1.86 1.86 0 0 0 1.89-1.59 1 1 0 0 0 -.5-1.17 13 13 0 0 0 -1.74-.83.86.86 0 0 0 -1.26.61 7.5 7.5 0 0 0 -.24.9z"/><path d="m30 5a25 25 0 1 0 25 25 25 25 0 0 0 -25-25zm0 48.48a23.48 23.48 0 1 1 23.48-23.48 23.5 23.5 0 0 1 -23.48 23.48z"/></g></svg>