<svg id="Psycho" xmlns="http://www.w3.org/2000/svg" viewBox="0 0 537.58 537.58"><defs><style>.cls-1{fill:#933d92;}</style></defs><title>Psycho_Icon</title><path class="cls-1" d="M284,14.21C135.79,14.21,15.21,134.79,15.21,283S135.79,551.79,284,551.79,552.79,431.21,552.79,283,432.21,14.21,284,14.21Zm0,521.29C144.77,535.5,31.5,422.23,31.5,283S144.77,30.5,284,30.5,536.5,143.77,536.5,283,423.23,535.5,284,535.5Z" transform="translate(-15.21 -14.21)"/><path class="cls-1" d="M398.76,195.8l-19.47,0a6.87,6.87,0,0,0-6.84,8,134.17,134.17,0,0,1-1.83,56.89c-4.07,16.69-20.41,27.06-33.66,27.07-16.37,0-22,0-24.14,0a2.77,2.77,0,0,1-.44,0c-1.49-.24-9.25-1.86-9.26-9.7,0-18.86-.13-61-.18-77.54A6.86,6.86,0,0,0,296,193.6H272.11a6.86,6.86,0,0,0-6.89,6.87c0,16.83.1,60.19.25,79.46,0,4.77-5.47,7.09-7.14,7.69a2.69,2.69,0,0,1-.92.16c-3.05,0-7.23,0-20.4.1-18,.17-36.19-11-40.1-32.64-3.3-18.29-3.95-35.63.21-53.68,1-4.48-.26-5.94-4.07-5.88-8.11.13-16.23.21-24.34,0-4.23-.12-6.05,1.17-6.75,5.64-3.88,24.83-2.19,49.26,4.21,73.48,5.63,21.3,18.11,36.52,38.58,45.21,4,1.71,7.76,3.4,12.27,4,17.56,2.43,21.26.83,38.83,1.25,9.51.23,9.56.07,9.57,9.86,0,19.59.82,70.68,1.17,92a9.68,9.68,0,0,0,9.7,9.52h17a9.74,9.74,0,0,0,9.75-9.59c.33-21.21,1.07-71.82,1.09-92.1,0-9.63,0-9.39,9.71-9.69,16.64-.51,19.46,1.59,36-1.43,24.28-4.41,41-17.81,50.14-41,10.12-25.8,10-52.33,7.41-79.13A8.72,8.72,0,0,0,398.76,195.8Z" transform="translate(-15.21 -14.21)"/><path class="cls-1" d="M271,173.38l120.49-.1a1.85,1.85,0,0,0,1.58-2.82,34.87,34.87,0,0,0-2.17-3c-13.38-16.89-32.29-22.41-52.28-23.22-27.76-1.12-41.68-.24-69.48-.37-4.38,0-5.55,1.88-5.52,5.87,0,4.19.12,11.22.19,16.52A7.19,7.19,0,0,0,271,173.38Z" transform="translate(-15.21 -14.21)"/></svg>