<svg id="Consultation" xmlns="http://www.w3.org/2000/svg" viewBox="0 0 537.58 537.58"><defs><style>.cls-1{fill:#933d92;}</style></defs><title>Consultation_Icon</title><path class="cls-1" d="M293.24,291.38H274.76A130.65,130.65,0,0,0,144.1,422H423.9A130.65,130.65,0,0,0,293.24,291.38Z" transform="translate(-15.21 -14.21)"/><circle class="cls-1" cx="268.79" cy="177.99" r="69.95"/><path class="cls-1" d="M284,551.79C135.79,551.79,15.21,431.21,15.21,283S135.79,14.21,284,14.21,552.79,134.79,552.79,283,432.21,551.79,284,551.79ZM284,30.5C144.77,30.5,31.5,143.77,31.5,283S144.77,535.5,284,535.5,536.5,422.23,536.5,283,423.23,30.5,284,30.5Z" transform="translate(-15.21 -14.21)"/></svg>