<svg viewBox="0 0 60 60" xmlns="http://www.w3.org/2000/svg"><g fill="#933d92"><path d="M30 5a25 25 0 1 0 25 25A25 25 0 0 0 30 5zm0 48.48A23.48 23.48 0 1 1 53.48 30 23.5 23.5 0 0 1 30 53.48z"/><path d="M44.68 37.61c-.12.16-.25.33-.36.5a.22.22 0 0 0 0 .16 4.77 4.77 0 0 1 .2.91v2.39a1 1 0 0 1-.23.58.6.6 0 0 1-.75.17.73.73 0 0 1-.47-.69v-2.42a.6.6 0 0 0-.58-.64h-2.51c-.38 0-.58.27-.58.68v2.28a.74.74 0 0 1-.32.68.71.71 0 0 1-1.13-.46v-2.37a8.4 8.4 0 0 1 .18-1.1.24.24 0 0 0-.13-.18.89.89 0 0 1-.29-1 .92.92 0 0 1 .91-.55h4.28v-6.86a1 1 0 0 1 .28-.79.88.88 0 0 1 1.38.23l.1.17zM33.77 34.4h.94a.83.83 0 0 0 .77-1.17.81.81 0 0 0-.85-.5H24.8a.8.8 0 0 0-.71.77.85.85 0 0 0 .89.9h1.11v7.47h7.47v-7.45zm4.44-.27h-1.67a1 1 0 0 0-1.1 1c0 .22 0 .43-.07.65-.21 1.76-.41 3.52-.62 5.28a1 1 0 0 0 .93 1.22 1 1 0 0 0 1.13-.93c.14-1.18.28-2.35.41-3.53.07-.53.13-1.06.19-1.6h3.26a1.84 1.84 0 0 0 1.79-1.91v-4.64a2.52 2.52 0 0 0-.09-.67 1.9 1.9 0 0 0-1.2-1.16 2.26 2.26 0 0 0-2.65.85c-.41.54-.83 1.07-1.28 1.58a1.45 1.45 0 0 1-1.55.49c-.31-.09-.62-.2-.94-.28a.87.87 0 0 0-.49 1.67 8 8 0 0 0 .87.27 3.26 3.26 0 0 0 2.5-.27l.65-.42a1.41 1.41 0 0 1 0 .18v2.23zm-16.43-2.41l.17.12a2.87 2.87 0 0 0 2.19.65 11.36 11.36 0 0 0 1.61-.37.85.85 0 0 0 .58-1 .88.88 0 0 0-1.06-.62l-.63.2a1.61 1.61 0 0 1-1.91-.46c-.43-.49-.84-1-1.23-1.53a2.37 2.37 0 0 0-1.73-1 2 2 0 0 0-2.23 2.06c.06 1.51 0 3 0 4.55a2.61 2.61 0 0 0 .09.69 1.85 1.85 0 0 0 1.69 1.22c.91.07 1.83 0 2.74 0 .51 0 .51 0 .58.5v.28c.18 1.45.35 2.91.52 4.37a1 1 0 0 0 1.13.9 1 1 0 0 0 .91-1.22c-.09-.75-.17-1.49-.26-2.24l-.42-3.7a1 1 0 0 0-1.1-1h-1.7v-2.41zm14.73-3.42v-4.13c0-.62-.22-.83-.83-.83h-7.79a1.83 1.83 0 0 0-.33 0 .55.55 0 0 0-.48.39 1.38 1.38 0 0 0-.06.46v4.15c0 .64.24.88.88.88h6.07a1.64 1.64 0 0 1 1.38.5 8.67 8.67 0 0 0 .72.62l-.42-1c.74-.19.86-.34.86-1.04zm-2.79-1.55a.62.62 0 0 1-.61-.61.61.61 0 0 1 .62-.6.62.62 0 0 1 .61.61.63.63 0 0 1-.62.6zm-1.92 0a.65.65 0 0 1-.62-.62.64.64 0 0 1 .6-.6.6.6 0 0 1 .62.59.61.61 0 0 1-.6.64zm-2-1.22a.61.61 0 1 1 0 1.21.62.62 0 0 1-.61-.6.61.61 0 0 1 .61-.6zm-6-.34a6.21 6.21 0 0 0 .85-.66 1.2 1.2 0 0 1 1-.45 6.4 6.4 0 0 0 .88 0v-.36c0-.66.23-.88.89-.88h5.44v-4c0-.43-.29-.66-.75-.66h-8a.68.68 0 0 0-.77.77v4.36a.68.68 0 0 0 .44.72 2.26 2.26 0 0 0 .39.07zm4.39-3.7a.61.61 0 1 1 0-1.22.61.61 0 0 1 0 1.22zm2.53-.58a.61.61 0 0 1-.64.58.61.61 0 0 1 .06-1.22.63.63 0 0 1 .54.65zm-3.91 0a.63.63 0 0 1-.62.6.6.6 0 0 1-.6-.61.62.62 0 0 1 .61-.61.63.63 0 0 1 .57.61zm-9.73 15.25v-6.7a.88.88 0 0 0-1.75.09v7.81a.93.93 0 0 0 .09.4 2.69 2.69 0 0 1 .14 1c0 1-.06 2 0 3a.69.69 0 0 0 1.12.48.78.78 0 0 0 .32-.69V39.3c0-.44.21-.71.63-.72h2.41a.61.61 0 0 1 .64.66v2.42a.72.72 0 0 0 .45.66.64.64 0 0 0 .72-.1.8.8 0 0 0 .29-.68v-2.28a7.58 7.58 0 0 0-.17-.93.4.4 0 0 1 .05-.24 1.91 1.91 0 0 0 .28-.44.86.86 0 0 0-.89-1.12h-4.33zm.79-10.88a2.27 2.27 0 1 0 2.3-2.23 2.27 2.27 0 0 0-2.3 2.23zm22-2.23a2.26 2.26 0 1 0 2.25 2.26 2.26 2.26 0 0 0-2.24-2.26z"/></g></svg>