<svg clip-rule="evenodd" fill-rule="evenodd" stroke-linejoin="round" stroke-miterlimit="1.41421" viewBox="0 0 1300 500" xmlns="http://www.w3.org/2000/svg"><g fill="#fff" fill-rule="nonzero"><path d="m106.53 277.723h44.387c5.885 0 11.271.689 16.159 1.97 4.887 1.28 9.077 3.151 12.568 5.416 3.491 2.364 6.184 5.121 8.179 8.371s2.893 6.894 2.893 10.834c0 2.954-.299 5.613-.998 7.977-.598 2.363-1.695 4.53-3.191 6.5-1.497 1.969-3.591 3.939-6.185 5.712-2.593 1.772-5.885 3.644-9.775 5.416v.296c3.89.591 7.481 1.674 10.573 3.151 3.192 1.477 5.885 3.349 8.08 5.614 2.294 2.265 3.99 4.924 5.187 7.878 1.196 3.053 1.795 6.303 1.795 9.947 0 4.137-.898 7.977-2.693 11.621-1.796 3.546-4.389 6.697-7.78 9.258-3.392 2.659-7.382 4.727-12.17 6.204-4.787 1.477-10.074 2.265-15.959 2.265h-51.37v-108.43zm18.552 48.946h23.541c3.69 0 6.982-.492 9.875-1.575 2.892-1.084 5.286-2.463 7.281-4.334 1.995-1.772 3.491-4.038 4.489-6.5 1.097-2.56 1.596-5.318 1.596-8.272 0-3.152-.599-6.106-1.796-8.667-1.197-2.56-3.092-4.825-5.685-6.598-2.594-1.773-5.885-3.25-9.875-4.235s-8.678-1.477-14.264-1.477h-15.261v41.658zm0 51.803h19.95c5.386 0 10.074-.493 13.964-1.478 3.891-.985 7.182-2.462 9.776-4.333 2.593-1.871 4.488-4.038 5.785-6.598 1.197-2.561 1.895-5.318 1.895-8.371 0-3.447-.499-6.599-1.596-9.553-1.097-2.955-2.893-5.515-5.386-7.682-2.494-2.167-5.786-3.841-9.875-5.121-4.09-1.28-9.077-1.871-14.962-1.871h-19.451v45.007z"/><path d="m204.381 302.639h16.857v15.856c1.696-2.265 3.392-4.53 5.287-6.598s3.79-4.038 5.885-5.614c1.995-1.674 4.189-2.954 6.384-3.841 2.194-.886 4.488-1.378 6.683-1.378 1.795 0 3.491.295 5.087.787 1.596.591 2.992 1.281 4.189 2.167s2.095 1.97 2.793 3.152c.698 1.181.998 2.462.998 3.84 0 2.659-.798 4.728-2.494 6.106-1.696 1.379-4.09 2.069-7.182 2.069-1.895 0-3.391-.197-4.588-.591s-2.195-.887-3.092-1.379c-.898-.493-1.796-.886-2.793-1.379-.898-.394-2.095-.591-3.591-.591-2.294 0-4.489 1.182-6.683 3.644-2.195 2.462-4.489 5.614-6.982 9.356v58.007h-16.858v-83.613z"/><path d="m303.031 388.123c-6.584 0-12.568-1.083-18.054-3.349-5.486-2.265-10.274-5.318-14.264-9.158-3.99-3.841-7.082-8.372-9.277-13.493-2.194-5.121-3.291-10.636-3.291-16.545 0-6.204 1.097-11.916 3.291-17.333 2.195-5.417 5.287-10.144 9.277-14.182 3.99-4.037 8.678-7.287 14.264-9.552 5.486-2.364 11.47-3.546 18.054-3.546 6.384 0 12.368 1.083 17.854 3.25 5.487 2.167 10.175 5.121 14.164 8.765 3.99 3.742 7.083 8.076 9.277 13 2.294 5.023 3.391 10.341 3.391 16.053 0 6.401-1.097 12.409-3.391 17.924-2.294 5.613-5.386 10.439-9.277 14.674-3.989 4.234-8.677 7.484-14.164 9.947-5.585 2.363-11.47 3.545-17.854 3.545zm3.092-6.106c3.292 0 6.384-.788 9.077-2.462 2.793-1.674 5.087-3.939 7.082-6.795 1.995-2.857 3.591-6.205 4.688-9.947 1.097-3.743 1.696-7.781 1.696-12.015 0-6.106-.499-11.818-1.596-17.038-1.097-5.318-2.793-9.848-5.087-13.788-2.394-3.939-5.486-6.992-9.277-9.257-3.79-2.265-8.478-3.447-13.964-3.447-2.893 0-5.586.788-8.279 2.462-2.594 1.674-4.988 3.841-6.983 6.599-1.995 2.757-3.69 6.007-4.887 9.749-1.197 3.743-1.796 7.682-1.796 11.917 0 6.106.699 11.818 1.995 17.136 1.297 5.318 3.192 10.045 5.686 14.083s5.486 7.189 9.177 9.455c3.69 2.265 7.88 3.348 12.468 3.348z"/><path d="m420.532 386.35h-16.956v-11.522c-1.995 1.477-3.891 3.053-5.786 4.628-1.895 1.576-3.99 3.053-6.284 4.334-2.294 1.28-4.788 2.265-7.481 3.151-2.693.788-5.885 1.182-9.476 1.182-3.291 0-6.284-.493-8.977-1.576s-4.987-2.56-6.783-4.432c-1.895-1.871-3.291-4.037-4.389-6.598-.997-2.561-1.496-5.318-1.496-8.273 0-3.643.698-6.893 2.195-9.749 1.496-2.856 3.491-5.417 5.885-7.781 2.493-2.265 5.386-4.333 8.678-6.106 3.291-1.772 6.882-3.348 10.573-4.727 3.79-1.379 7.68-2.659 11.67-3.742s7.88-2.068 11.671-3.053v-5.22c0-3.841-.399-7.091-1.098-9.651-.798-2.561-1.795-4.727-3.291-6.303-1.397-1.576-3.192-2.758-5.187-3.447s-4.289-1.083-6.783-1.083c-2.893 0-5.187.394-6.982 1.083-1.796.788-3.192 1.674-4.19 2.856-.997 1.182-1.695 2.561-2.094 4.038s-.599 3.053-.599 4.629c0 1.477-.099 2.856-.299 4.234-.199 1.379-.698 2.462-1.297 3.546-.598.985-1.496 1.772-2.593 2.462-1.097.591-2.494.985-4.09.985-2.593 0-4.788-.887-6.384-2.758-1.595-1.871-2.393-4.235-2.393-6.992 0-2.758.897-5.318 2.792-7.78 1.796-2.364 4.29-4.531 7.481-6.205 3.093-1.772 6.783-3.151 10.873-4.136 4.089-.985 8.478-1.477 13.067-1.477 5.586 0 10.274.492 14.064 1.575 3.79 1.084 6.982 2.561 9.276 4.531 2.394 1.969 4.09 4.333 5.088 6.992 1.097 2.757 1.595 5.712 1.595 9.06zm-16.857-48.749c-3.591 1.083-7.381 2.462-11.371 4.136s-7.68 3.546-10.972 5.712c-3.292 2.167-6.085 4.531-8.279 7.091-2.194 2.561-3.292 5.318-3.292 8.273 0 2.068.399 4.038 1.098 5.81.798 1.773 1.795 3.447 3.092 4.826 1.296 1.379 2.793 2.462 4.389 3.25 1.695.788 3.391 1.182 5.186 1.182 3.791 0 7.182-.887 10.374-2.758 3.192-1.773 6.384-3.939 9.676-6.401v-31.121z"/><path d="m497.238 378.275c-1.995 1.575-4.09 2.954-6.284 4.136-2.294 1.182-4.589 2.265-7.082 3.151-2.494.887-4.888 1.478-7.481 1.97-2.494.492-4.988.689-7.282.689-4.987 0-9.675-1.181-13.964-3.447-4.389-2.265-8.18-5.318-11.372-9.257-3.191-3.939-5.785-8.47-7.68-13.591s-2.793-10.636-2.793-16.348c0-5.613 1.197-11.129 3.491-16.545 2.294-5.417 5.486-10.144 9.576-14.28s8.778-7.485 14.264-10.045c5.386-2.561 11.171-3.743 17.256-3.743 4.09 0 7.78.69 10.872 2.068 3.092 1.379 5.985 3.349 8.579 5.712v-44.219l11.869-4.825h4.988v128.422h-16.857v-9.848zm0-49.045c0-3.25-.599-6.303-1.895-8.962-1.197-2.758-2.893-5.023-4.888-6.992-1.995-1.97-4.289-3.447-6.783-4.531-2.493-1.083-5.087-1.575-7.581-1.575-3.391 0-6.583.787-9.475 2.462-2.893 1.674-5.487 3.939-7.681 6.894-2.194 2.954-3.89 6.499-5.087 10.636-1.197 4.136-1.895 8.666-1.895 13.689 0 5.318.698 10.341 2.094 14.969 1.397 4.629 3.292 8.667 5.686 12.114s5.187 6.204 8.478 8.174c3.192 1.97 6.683 3.053 10.374 3.053 3.591 0 7.082-.886 10.474-2.561 3.391-1.674 6.084-3.742 8.179-6.007z"/><path d="m591.997 334.253v52.097h-18.553v-108.627h18.553v49.439h55.26v-49.439h18.553v108.627h-18.553v-52.097z"/><path d="m725.159 388.123c-6.583 0-12.568-1.083-18.054-3.349-5.486-2.265-10.274-5.318-14.264-9.158-3.99-3.841-7.082-8.372-9.276-13.493-2.195-5.121-3.292-10.636-3.292-16.545 0-6.204 1.097-11.916 3.292-17.333 2.194-5.417 5.286-10.144 9.276-14.182 3.99-4.037 8.678-7.287 14.264-9.552 5.486-2.364 11.471-3.546 18.054-3.546 6.384 0 12.369 1.083 17.855 3.25s10.174 5.121 14.164 8.765c3.99 3.742 7.082 8.076 9.276 13 2.295 5.023 3.392 10.341 3.392 16.053 0 6.401-1.097 12.409-3.392 17.924-2.294 5.613-5.386 10.439-9.276 14.674-3.99 4.234-8.678 7.484-14.164 9.947-5.486 2.363-11.471 3.545-17.855 3.545zm3.192-6.106c3.292 0 6.384-.788 9.077-2.462 2.793-1.674 5.087-3.939 7.082-6.795 1.995-2.857 3.591-6.205 4.688-9.947 1.097-3.743 1.696-7.781 1.696-12.015 0-6.106-.499-11.818-1.596-17.038-1.097-5.318-2.793-9.848-5.087-13.788-2.394-3.939-5.486-6.992-9.277-9.257-3.79-2.265-8.478-3.447-13.964-3.447-2.893 0-5.586.788-8.279 2.462-2.594 1.674-4.987 3.841-6.982 6.599-1.995 2.757-3.691 6.007-4.888 9.749-1.197 3.743-1.795 7.682-1.795 11.917 0 6.106.698 11.818 1.994 17.136 1.297 5.318 3.192 10.045 5.686 14.083s5.486 7.189 9.177 9.455c3.591 2.265 7.78 3.348 12.468 3.348z"/><path d="m780.219 302.639h16.858v15.856c1.695-2.265 3.391-4.53 5.286-6.598s3.791-4.038 5.885-5.614c1.995-1.674 4.19-2.954 6.384-3.841 2.195-.886 4.489-1.378 6.683-1.378 1.796 0 3.491.295 5.087.787 1.596.591 2.993 1.281 4.19 2.167s2.094 1.97 2.792 3.152c.699 1.181.998 2.462.998 3.84 0 2.659-.798 4.728-2.494 6.106-1.695 1.379-4.089 2.069-7.181 2.069-1.896 0-3.392-.197-4.589-.591s-2.194-.887-3.092-1.379c-.898-.493-1.795-.886-2.793-1.379-.898-.394-2.095-.591-3.591-.591-2.294 0-4.488 1.182-6.683 3.644-2.194 2.462-4.488 5.614-6.982 9.356v58.007h-16.857v-83.613z"/><path d="m848.347 259.701c1.396 0 2.593.197 3.79.689s2.194 1.083 3.092 1.871 1.596 1.674 2.095 2.659c.498.985.798 2.068.798 3.152 0 1.083-.3 2.166-.798 3.25-.499 1.083-1.197 1.969-2.095 2.659-.898.788-1.895 1.378-3.092 1.772-1.197.493-2.394.69-3.79.69-2.594 0-4.888-.788-6.783-2.462-1.895-1.675-2.793-3.644-2.793-5.909 0-1.084.299-2.167.798-3.152s1.197-1.871 2.094-2.659c.898-.788 1.896-1.379 3.093-1.871 1.097-.492 2.294-.689 3.591-.689zm-8.279 45.991 11.869-4.825h4.988v85.483h-16.857z"/><path d="m862.61 382.017 61.045-72.385h-61.045v-6.993h85.084v3.546l-62.541 73.173h62.541v6.992h-85.084z"/><path d="m994.077 388.123c-6.584 0-12.569-1.083-18.055-3.349-5.486-2.265-10.274-5.318-14.263-9.158-3.99-3.841-7.082-8.372-9.277-13.493-2.194-5.121-3.291-10.636-3.291-16.545 0-6.204 1.097-11.916 3.291-17.333 2.195-5.417 5.287-10.144 9.277-14.182 3.989-4.037 8.678-7.287 14.263-9.552 5.486-2.364 11.471-3.546 18.055-3.546 6.383 0 12.368 1.083 17.854 3.25s10.174 5.121 14.164 8.765c3.99 3.742 7.082 8.076 9.277 13 2.294 5.023 3.391 10.341 3.391 16.053 0 6.401-1.097 12.409-3.391 17.924-2.294 5.613-5.387 10.439-9.277 14.674-3.99 4.234-8.678 7.484-14.164 9.947-5.486 2.363-11.471 3.545-17.854 3.545zm3.191-6.106c3.292 0 6.384-.788 9.077-2.462 2.793-1.674 5.088-3.939 7.082-6.795 1.995-2.857 3.591-6.205 4.689-9.947 1.097-3.743 1.695-7.781 1.695-12.015 0-6.106-.498-11.818-1.596-17.038-1.097-5.318-2.793-9.848-5.187-13.788-2.393-3.939-5.486-6.992-9.276-9.257s-8.478-3.447-13.965-3.447c-2.892 0-5.585.788-8.279 2.462-2.593 1.674-4.987 3.841-6.982 6.599-1.995 2.757-3.69 6.007-4.887 9.749-1.197 3.743-1.796 7.682-1.796 11.917 0 6.106.698 11.818 1.995 17.136s3.192 10.045 5.686 14.083c2.493 4.038 5.486 7.189 9.176 9.455 3.691 2.265 7.88 3.348 12.568 3.348z"/><path d="m1049.14 302.639h16.957v15.265c5.087-5.613 10.473-9.848 15.959-12.704s11.172-4.235 16.857-4.235c2.893 0 5.686.69 8.279 1.97 2.594 1.379 4.888 3.151 6.783 5.416 1.895 2.266 3.491 4.925 4.589 7.978 1.097 3.053 1.695 6.401 1.695 9.848v60.173h-16.857v-57.317c0-5.614-1.297-9.75-3.79-12.606-2.494-2.856-5.786-4.333-9.776-4.333-3.59 0-7.481 1.083-11.77 3.348-4.189 2.265-8.279 5.121-12.069 8.765v62.045h-16.957v-83.613z"/><path d="m1160.95 382.411c2.294 0 4.389-.394 6.284-1.083 1.995-.69 3.591-1.675 4.987-2.758 1.397-1.182 2.494-2.462 3.292-3.939.798-1.478 1.197-3.053 1.197-4.531 0-2.56-.698-4.825-1.995-6.696-1.297-1.872-2.992-3.546-5.087-5.023s-4.489-2.856-7.182-4.136c-2.693-1.281-5.486-2.561-8.379-3.94-2.892-1.28-5.685-2.757-8.378-4.234-2.693-1.478-5.087-3.25-7.182-5.319-2.095-1.969-3.79-4.333-5.087-6.992s-1.995-5.712-1.995-9.257c0-3.349.698-6.402 2.095-9.258 1.396-2.856 3.491-5.318 6.084-7.386 2.594-2.068 5.686-3.742 9.177-4.924s7.381-1.773 11.67-1.773c2.793 0 5.387.197 7.88.591 2.494.394 4.888 1.083 7.182 2.265 2.394 1.083 4.688 2.659 7.082 4.727 2.294 2.068 4.788 4.728 7.381 7.977l-6.184 5.417c-3.192-5.121-6.783-8.962-10.773-11.522-3.99-2.561-8.179-3.841-12.668-3.841-2.393 0-4.588.295-6.583.886s-3.69 1.379-5.087 2.364c-1.396.984-2.494 2.166-3.292 3.545s-1.196 2.758-1.196 4.333c0 3.349 1.196 6.106 3.69 8.371s5.486 4.235 9.177 6.008c3.69 1.773 7.581 3.545 11.87 5.219 4.289 1.675 8.279 3.644 11.87 5.909 3.69 2.266 6.683 4.925 9.176 7.978 2.394 3.151 3.691 6.992 3.691 11.719 0 3.546-.698 6.894-1.995 9.947s-3.292 5.712-6.085 7.977c-2.693 2.265-6.084 4.038-10.174 5.318-4.089 1.28-8.777 1.97-14.264 1.97-2.493 0-5.087-.197-7.68-.591s-5.287-1.083-7.88-2.265c-2.593-1.083-5.287-2.659-7.98-4.727s-5.286-4.728-7.88-7.977l6.883-6.106c1.995 2.856 3.99 5.219 5.885 7.287 1.895 1.97 3.79 3.644 5.785 4.924 1.995 1.281 3.99 2.167 6.085 2.758 1.895.492 4.189.788 6.583.788z"/><path d="m630.2 181.209c96.256 0 186.627 8.174 262.634 20.189-23.042-114.831-125.582-201.398-248.569-201.398-122.888 0-225.428 86.468-248.569 201.103 66.032-10.932 146.827-19.894 234.504-19.894z"/><path d="m224.53 250.64s176.552-58.007 400.583-58.007c198.995 0 367.866 34.864 439.086 64.015-122.988-35.553-440.183-57.712-531.252-41.166 94.261-5.614 199.194 3.053 262.234 27.181-80.196-12.015-106.529-13.985-187.424-13.985-66.232 0-119.596 7.288-175.255 21.864 48.976-21.273 67.628-22.848 113.013-28.364-86.879-15.757-320.985 28.462-320.985 28.462z"/><path d="m12.967 457.357c7.282 0 12.269 5.219 12.269 13 0 7.78-4.987 13.098-12.269 13.098h-9.376v15.757h-3.591v-41.855zm-9.376 22.552h8.578c5.885 0 9.376-3.545 9.376-9.552 0-6.008-3.491-9.455-9.376-9.455h-8.578z"/><path d="m53.265 487.887c.399 5.022 4.688 8.469 10.673 8.469 5.685 0 9.775-3.447 9.775-8.174 0-3.939-2.494-6.204-8.08-7.78l-4.688-1.379c-7.082-1.97-10.174-5.22-10.174-10.735 0-6.795 5.586-11.621 13.067-11.621 7.381 0 12.867 4.826 13.067 11.424h-3.591c-.299-4.727-4.189-7.878-9.576-7.878-5.286 0-9.177 3.25-9.177 7.878 0 3.644 2.394 5.712 7.98 7.288l4.09 1.182c7.68 2.167 10.872 5.318 10.872 11.227 0 7.386-5.386 12.212-13.765 12.212-7.98 0-13.565-4.826-13.964-12.015h3.491z"/><path d="m114.11 499.212v-18.121l-13.665-23.734h4.09l11.271 19.893h.1l11.271-19.893h4.09l-13.666 23.734v18.121z"/><path d="m153.012 478.137c0-13.099 6.583-21.47 16.957-21.47 8.079 0 14.463 5.811 15.46 13.985h-3.591c-1.097-6.008-5.885-10.242-11.869-10.242-8.08 0-13.267 6.894-13.267 17.825 0 11.03 5.187 18.023 13.267 18.023 6.084 0 10.672-3.546 11.77-9.356h3.591c-1.297 8.174-7.182 13.098-15.461 13.098-10.274-.098-16.857-8.568-16.857-21.863z"/><path d="m237.697 499.212v-19.697h-22.244v19.697h-3.591v-41.855h3.591v18.613h22.244v-18.613h3.591v41.855z"/><path d="m302.632 478.334c0 13.295-6.683 21.568-17.356 21.568-10.573 0-17.256-8.372-17.256-21.568 0-13.296 6.683-21.667 17.256-21.667 10.673 0 17.356 8.371 17.356 21.667zm-30.922 0c0 10.931 5.287 17.924 13.566 17.924 8.379 0 13.665-6.894 13.665-17.924s-5.286-17.924-13.665-17.924c-8.279-.099-13.566 6.894-13.566 17.924z"/><path d="m336.745 499.212v-38.31h-12.568v-3.644h28.827v3.644h-12.568v38.31z"/><path d="m404.473 499.212v-19.697h-22.243v19.697h-3.591v-41.855h3.591v18.613h22.243v-18.613h3.591v41.855z"/><path d="m459.334 499.212h-23.042v-41.855h23.042v3.644h-19.451v15.068h18.454v3.545h-18.454v16.053h19.451z"/><path d="m490.156 499.212h-3.591v-41.855h13.466c7.481 0 12.169 4.825 12.169 12.212 0 5.909-3.092 10.439-8.179 11.818l9.276 17.825h-4.189l-8.778-17.136c-.1 0-.399 0-.599 0h-9.575zm0-20.681h9.575c5.586 0 8.778-3.25 8.778-8.864 0-5.515-3.391-8.863-8.877-8.863h-9.476z"/><path d="m560.278 486.409h-15.96l-4.189 12.803h-3.89l14.264-41.855h3.59l14.264 41.855h-3.79zm-14.962-3.447h13.865l-6.883-20.681h-.1z"/><path d="m606.56 457.357c7.282 0 12.269 5.219 12.269 13 0 7.78-4.987 13.098-12.269 13.098h-9.376v15.757h-3.591v-41.855zm-9.376 22.552h8.578c5.885 0 9.376-3.545 9.376-9.552 0-6.008-3.491-9.455-9.376-9.455h-8.578z"/><path d="m668.004 499.212h-23.041v-41.855h23.041v3.644h-19.45v15.068h18.453v3.545h-18.453v16.053h19.45z"/><path d="m698.826 484.341c0 6.992 4.189 11.818 11.172 11.818 6.982 0 11.171-4.826 11.171-11.818v-26.984h3.591v27.28c0 9.06-5.586 15.265-14.762 15.265-9.177 0-14.763-6.303-14.763-15.265v-27.28h3.591z"/><path d="m762.963 499.212v-38.31h-12.568v-3.644h28.827v3.644h-12.568v38.31z"/><path d="m804.757 457.357h3.591v41.855h-3.591z"/><path d="m835.08 478.137c0-13.099 6.583-21.47 16.957-21.47 8.08 0 14.463 5.811 15.461 13.985h-3.591c-1.097-6.008-5.885-10.242-11.87-10.242-8.079 0-13.266 6.894-13.266 17.825 0 11.03 5.187 18.023 13.266 18.023 6.085 0 10.673-3.546 11.77-9.356h3.591c-1.396 8.174-7.182 13.098-15.461 13.098-10.274-.098-16.857-8.568-16.857-21.863z"/><path d="m927.446 487.887c.399 5.022 4.688 8.469 10.673 8.469 5.685 0 9.775-3.447 9.775-8.174 0-3.939-2.494-6.204-8.08-7.78l-4.688-1.379c-7.082-1.97-10.174-5.22-10.174-10.735 0-6.795 5.586-11.621 13.067-11.621 7.381 0 12.867 4.826 13.067 11.424h-3.591c-.299-4.727-4.19-7.878-9.576-7.878-5.286 0-9.177 3.25-9.177 7.878 0 3.644 2.394 5.712 7.98 7.288l4.09 1.182c7.68 2.167 10.872 5.318 10.872 11.227 0 7.386-5.386 12.212-13.765 12.212-7.98 0-13.565-4.826-13.964-12.015h3.491z"/><path d="m1000.96 499.212h-23.041v-41.855h23.041v3.644h-19.451v15.068h18.454v3.545h-18.454v16.053h19.451z"/><path d="m1031.78 499.212h-3.591v-41.855h13.466c7.481 0 12.169 4.825 12.169 12.212 0 5.909-3.092 10.439-8.179 11.818l9.276 17.825h-4.189l-8.778-17.136c-.1 0-.399 0-.598 0h-9.576zm0-20.681h9.576c5.585 0 8.777-3.25 8.777-8.864 0-5.515-3.391-8.863-8.877-8.863h-9.476z"/><path d="m1092.13 499.212-14.264-41.855h3.79l12.169 36.931h.2l12.169-36.931h3.79l-14.263 41.855z"/><path d="m1135.22 457.357h3.591v41.855h-3.591z"/><path d="m1165.44 478.137c0-13.099 6.583-21.47 16.957-21.47 8.079 0 14.463 5.811 15.46 13.985h-3.591c-1.097-6.008-5.885-10.242-11.869-10.242-8.08 0-13.267 6.894-13.267 17.825 0 11.03 5.187 18.023 13.267 18.023 6.084 0 10.672-3.546 11.77-9.356h3.591c-1.397 8.174-7.182 13.098-15.461 13.098-10.174-.098-16.857-8.568-16.857-21.863z"/><path d="m1247.33 499.212h-23.042v-41.855h23.042v3.644h-19.451v15.068h18.453v3.545h-18.453v16.053h19.451z"/><path d="m1275.76 487.887c.399 5.022 4.688 8.469 10.672 8.469 5.686 0 9.776-3.447 9.776-8.174 0-3.939-2.494-6.204-8.08-7.78l-4.688-1.379c-7.082-1.97-10.174-5.22-10.174-10.735 0-6.795 5.586-11.621 13.067-11.621 7.381 0 12.867 4.826 13.067 11.424h-3.591c-.3-4.727-4.19-7.878-9.576-7.878-5.287 0-9.177 3.25-9.177 7.878 0 3.644 2.394 5.712 7.98 7.288l4.09 1.182c7.68 2.167 10.872 5.318 10.872 11.227 0 7.386-5.386 12.212-13.765 12.212-7.98 0-13.566-4.826-13.965-12.015h3.492z"/></g></svg>