<?xml version="1.0" encoding="UTF-8" standalone="no"?><!DOCTYPE svg PUBLIC "-//W3C//DTD SVG 1.1//EN" "http://www.w3.org/Graphics/SVG/1.1/DTD/svg11.dtd"><svg width="100%" height="100%" viewBox="0 0 1000 360" version="1.1" xmlns="http://www.w3.org/2000/svg" xmlns:xlink="http://www.w3.org/1999/xlink" xml:space="preserve" style="fill-rule:evenodd;clip-rule:evenodd;stroke-linejoin:round;stroke-miterlimit:1.41421;"><g><g><path d="M0.275,257.469l40.818,0c5.412,0 10.365,0.639 14.86,1.826c4.495,1.187 8.347,2.922 11.558,5.022c3.21,2.191 5.687,4.747 7.521,7.76c1.835,3.013 2.66,6.391 2.66,10.043c0,2.739 -0.275,5.204 -0.917,7.396c-0.55,2.191 -1.559,4.199 -2.935,6.025c-1.376,1.826 -3.302,3.653 -5.687,5.296c-2.385,1.643 -5.412,3.378 -8.99,5.021l0,0.274c3.578,0.548 6.88,1.553 9.723,2.922c2.936,1.37 5.412,3.104 7.43,5.204c2.11,2.1 3.669,4.565 4.77,7.304c1.101,2.831 1.651,5.844 1.651,9.222c0,3.834 -0.825,7.395 -2.476,10.773c-1.652,3.287 -4.036,6.209 -7.155,8.582c-3.119,2.466 -6.788,4.383 -11.191,5.752c-4.403,1.37 -9.264,2.1 -14.676,2.1l-47.239,0l0,-100.522l0.275,0Zm17.061,45.377l21.648,0c3.394,0 6.421,-0.457 9.081,-1.461c2.66,-1.005 4.861,-2.283 6.696,-4.018c1.834,-1.643 3.21,-3.743 4.127,-6.025c1.009,-2.374 1.468,-4.931 1.468,-7.67c0,-2.921 -0.55,-5.66 -1.651,-8.034c-1.101,-2.374 -2.844,-4.474 -5.229,-6.117c-2.384,-1.644 -5.411,-3.013 -9.08,-3.926c-3.67,-0.913 -7.981,-1.37 -13.117,-1.37l-14.034,0l0,38.621l0.091,0Zm0,48.024l18.346,0c4.953,0 9.264,-0.457 12.841,-1.37c3.578,-0.913 6.604,-2.282 8.989,-4.017c2.385,-1.735 4.128,-3.743 5.321,-6.117c1.1,-2.374 1.742,-4.93 1.742,-7.761c0,-3.195 -0.458,-6.117 -1.467,-8.856c-1.009,-2.739 -2.66,-5.113 -4.954,-7.121c-2.293,-2.009 -5.32,-3.561 -9.08,-4.748c-3.761,-1.187 -8.348,-1.735 -13.759,-1.735l-17.887,0l0,41.725l-0.092,0Z" style="fill:#fff;fill-rule:nonzero;"/><path d="M90.259,280.568l15.501,0l0,14.7c1.56,-2.1 3.119,-4.2 4.862,-6.118c1.743,-1.917 3.486,-3.743 5.412,-5.204c1.834,-1.552 3.852,-2.739 5.87,-3.561c2.018,-0.821 4.128,-1.278 6.146,-1.278c1.651,0 3.21,0.274 4.678,0.731c1.468,0.547 2.752,1.187 3.852,2.008c1.101,0.822 1.927,1.826 2.569,2.922c0.642,1.096 0.917,2.282 0.917,3.561c0,2.465 -0.734,4.382 -2.293,5.66c-1.559,1.279 -3.761,1.918 -6.604,1.918c-1.743,0 -3.119,-0.183 -4.22,-0.548c-1.101,-0.365 -2.018,-0.822 -2.843,-1.278c-0.826,-0.457 -1.651,-0.822 -2.569,-1.279c-0.825,-0.365 -1.926,-0.547 -3.302,-0.547c-2.11,0 -4.127,1.095 -6.145,3.378c-2.018,2.282 -4.128,5.204 -6.421,8.673l0,53.777l-15.502,0l0,-77.515l0.092,0Z" style="fill:#fff;fill-rule:nonzero;"/><path d="M180.976,359.817c-6.054,0 -11.558,-1.004 -16.602,-3.104c-5.045,-2.1 -9.448,-4.93 -13.117,-8.491c-3.669,-3.561 -6.513,-7.76 -8.531,-12.508c-2.018,-4.748 -3.027,-9.861 -3.027,-15.339c0,-5.752 1.009,-11.047 3.027,-16.069c2.018,-5.021 4.862,-9.404 8.531,-13.147c3.669,-3.743 7.98,-6.756 13.117,-8.856c5.044,-2.191 10.548,-3.287 16.602,-3.287c5.87,0 11.374,1.004 16.419,3.013c5.045,2.009 9.356,4.748 13.025,8.126c3.669,3.469 6.513,7.486 8.531,12.051c2.109,4.657 3.118,9.587 3.118,14.883c0,5.934 -1.009,11.503 -3.118,16.616c-2.11,5.204 -4.954,9.678 -8.531,13.604c-3.669,3.926 -7.98,6.939 -13.025,9.222c-5.137,2.191 -10.549,3.286 -16.419,3.286Zm2.843,-5.66c3.027,0 5.871,-0.731 8.348,-2.283c2.568,-1.552 4.678,-3.652 6.512,-6.3c1.835,-2.647 3.302,-5.752 4.311,-9.221c1.009,-3.469 1.56,-7.213 1.56,-11.139c0,-5.66 -0.459,-10.956 -1.468,-15.795c-1.009,-4.93 -2.568,-9.13 -4.678,-12.782c-2.201,-3.652 -5.045,-6.482 -8.531,-8.582c-3.485,-2.1 -7.796,-3.196 -12.841,-3.196c-2.66,0 -5.137,0.731 -7.614,2.283c-2.384,1.552 -4.586,3.561 -6.42,6.117c-1.835,2.556 -3.394,5.569 -4.495,9.039c-1.101,3.469 -1.651,7.121 -1.651,11.047c0,5.661 0.642,10.956 1.834,15.887c1.193,4.93 2.936,9.312 5.229,13.056c2.293,3.743 5.045,6.665 8.439,8.764c3.394,2.1 7.246,3.105 11.465,3.105Z" style="fill:#fff;fill-rule:nonzero;"/><path d="M289.03,358.174l-15.594,0l0,-10.682c-1.834,1.369 -3.577,2.83 -5.32,4.291c-1.743,1.461 -3.669,2.83 -5.779,4.017c-2.11,1.187 -4.403,2.1 -6.879,2.922c-2.477,0.73 -5.412,1.095 -8.714,1.095c-3.027,0 -5.779,-0.456 -8.256,-1.46c-2.476,-1.005 -4.586,-2.374 -6.237,-4.109c-1.743,-1.735 -3.027,-3.743 -4.036,-6.117c-0.917,-2.374 -1.376,-4.93 -1.376,-7.669c0,-3.379 0.642,-6.391 2.018,-9.039c1.376,-2.648 3.211,-5.022 5.412,-7.213c2.293,-2.1 4.953,-4.017 7.98,-5.661c3.027,-1.643 6.329,-3.104 9.723,-4.382c3.486,-1.278 7.063,-2.465 10.732,-3.47c3.669,-1.004 7.246,-1.917 10.732,-2.83l0,-4.839c0,-3.561 -0.367,-6.574 -1.009,-8.947c-0.734,-2.374 -1.651,-4.383 -3.027,-5.844c-1.284,-1.46 -2.935,-2.556 -4.77,-3.195c-1.834,-0.639 -3.944,-1.004 -6.237,-1.004c-2.66,0 -4.77,0.365 -6.421,1.004c-1.651,0.73 -2.935,1.552 -3.852,2.648c-0.918,1.095 -1.56,2.373 -1.927,3.743c-0.367,1.369 -0.55,2.83 -0.55,4.291c0,1.37 -0.092,2.648 -0.275,3.926c-0.184,1.278 -0.642,2.283 -1.193,3.287c-0.55,0.913 -1.376,1.643 -2.385,2.282c-1.008,0.548 -2.293,0.913 -3.76,0.913c-2.385,0 -4.403,-0.821 -5.871,-2.556c-1.467,-1.735 -2.201,-3.926 -2.201,-6.482c0,-2.557 0.825,-4.931 2.568,-7.213c1.651,-2.191 3.944,-4.2 6.88,-5.752c2.843,-1.644 6.237,-2.922 9.998,-3.835c3.761,-0.913 7.797,-1.369 12.016,-1.369c5.137,0 9.448,0.456 12.933,1.46c3.486,1.005 6.421,2.374 8.531,4.2c2.201,1.826 3.761,4.018 4.678,6.483c1.009,2.556 1.468,5.295 1.468,8.399l0,58.707Zm-15.502,-45.194c-3.302,1.004 -6.788,2.282 -10.457,3.835c-3.669,1.552 -7.063,3.286 -10.09,5.295c-3.027,2.009 -5.595,4.2 -7.613,6.574c-2.018,2.374 -3.027,4.93 -3.027,7.669c0,1.917 0.367,3.743 1.009,5.387c0.734,1.643 1.651,3.195 2.843,4.474c1.193,1.278 2.569,2.282 4.036,3.012c1.56,0.731 3.119,1.096 4.77,1.096c3.486,0 6.604,-0.822 9.54,-2.556c2.935,-1.644 5.87,-3.652 8.897,-5.935l0,-28.851l0.092,0Z" style="fill:#fff;fill-rule:nonzero;"/><path d="M359.567,350.687c-1.834,1.461 -3.761,2.739 -5.779,3.835c-2.109,1.096 -4.219,2.1 -6.512,2.922c-2.293,0.821 -4.495,1.369 -6.88,1.826c-2.293,0.456 -4.586,0.639 -6.696,0.639c-4.586,0 -8.897,-1.096 -12.841,-3.196c-4.036,-2.1 -7.522,-4.93 -10.457,-8.582c-2.935,-3.652 -5.32,-7.852 -7.063,-12.6c-1.743,-4.747 -2.568,-9.86 -2.568,-15.156c0,-5.204 1.1,-10.317 3.21,-15.338c2.11,-5.022 5.045,-9.404 8.806,-13.239c3.76,-3.835 8.072,-6.939 13.117,-9.313c4.953,-2.373 10.273,-3.469 15.868,-3.469c3.761,0 7.155,0.639 9.998,1.917c2.844,1.279 5.504,3.105 7.889,5.296l0,-40.994l10.915,-4.474l4.587,0l0,119.056l-15.502,0l0,-9.13l-0.092,0Zm0,-45.468c0,-3.013 -0.55,-5.843 -1.743,-8.308c-1.1,-2.556 -2.66,-4.656 -4.494,-6.482c-1.835,-1.826 -3.945,-3.196 -6.238,-4.2c-2.293,-1.005 -4.678,-1.461 -6.971,-1.461c-3.119,0 -6.054,0.73 -8.714,2.282c-2.66,1.553 -5.045,3.653 -7.063,6.392c-2.018,2.739 -3.577,6.025 -4.678,9.86c-1.101,3.835 -1.743,8.035 -1.743,12.691c0,4.93 0.642,9.587 1.927,13.878c1.284,4.291 3.027,8.034 5.228,11.23c2.201,3.195 4.77,5.752 7.797,7.578c2.935,1.826 6.145,2.83 9.539,2.83c3.302,0 6.513,-0.822 9.631,-2.374c3.119,-1.552 5.596,-3.469 7.522,-5.569l0,-38.347l0,0Z" style="fill:#fff;fill-rule:nonzero;"/></g><g><path d="M446.707,309.876l0,48.298l-17.061,0l0,-100.705l17.061,0l0,45.833l50.816,0l0,-45.833l17.061,0l0,100.705l-17.061,0l0,-48.298l-50.816,0Z" style="fill:#fff;fill-rule:nonzero;"/><path d="M569.162,359.817c-6.054,0 -11.558,-1.004 -16.603,-3.104c-5.045,-2.1 -9.448,-4.93 -13.117,-8.491c-3.669,-3.561 -6.512,-7.76 -8.53,-12.508c-2.018,-4.748 -3.027,-9.861 -3.027,-15.339c0,-5.752 1.009,-11.047 3.027,-16.069c2.018,-5.021 4.861,-9.404 8.53,-13.147c3.669,-3.743 7.98,-6.756 13.117,-8.856c5.045,-2.191 10.549,-3.287 16.603,-3.287c5.87,0 11.374,1.004 16.419,3.013c5.045,2.009 9.356,4.748 13.025,8.126c3.669,3.469 6.512,7.486 8.53,12.051c2.11,4.657 3.119,9.587 3.119,14.883c0,5.934 -1.009,11.503 -3.119,16.616c-2.109,5.204 -4.953,9.678 -8.53,13.604c-3.669,3.926 -7.98,6.939 -13.025,9.222c-5.045,2.191 -10.549,3.286 -16.419,3.286Zm2.935,-5.66c3.027,0 5.87,-0.731 8.347,-2.283c2.568,-1.552 4.678,-3.652 6.513,-6.3c1.834,-2.647 3.302,-5.752 4.311,-9.221c1.009,-3.469 1.559,-7.213 1.559,-11.139c0,-5.66 -0.459,-10.956 -1.468,-15.795c-1.009,-4.93 -2.568,-9.13 -4.678,-12.782c-2.201,-3.652 -5.045,-6.482 -8.53,-8.582c-3.486,-2.1 -7.797,-3.196 -12.842,-3.196c-2.66,0 -5.137,0.731 -7.613,2.283c-2.385,1.552 -4.586,3.561 -6.421,6.117c-1.835,2.556 -3.394,5.569 -4.495,9.039c-1.1,3.469 -1.651,7.121 -1.651,11.047c0,5.661 0.642,10.956 1.835,15.887c1.192,4.93 2.935,9.312 5.228,13.056c2.293,3.743 5.045,6.665 8.439,8.764c3.302,2.1 7.155,3.105 11.466,3.105Z" style="fill:#fff;fill-rule:nonzero;"/><path d="M619.795,280.568l15.501,0l0,14.7c1.56,-2.1 3.119,-4.2 4.862,-6.118c1.743,-1.917 3.485,-3.743 5.412,-5.204c1.834,-1.552 3.852,-2.739 5.87,-3.561c2.018,-0.821 4.128,-1.278 6.146,-1.278c1.651,0 3.21,0.274 4.678,0.731c1.467,0.547 2.752,1.187 3.852,2.008c1.101,0.822 1.927,1.826 2.569,2.922c0.642,1.096 0.917,2.282 0.917,3.561c0,2.465 -0.734,4.382 -2.293,5.66c-1.56,1.279 -3.761,1.918 -6.605,1.918c-1.742,0 -3.118,-0.183 -4.219,-0.548c-1.101,-0.365 -2.018,-0.822 -2.843,-1.278c-0.826,-0.457 -1.652,-0.822 -2.569,-1.279c-0.825,-0.365 -1.926,-0.547 -3.302,-0.547c-2.11,0 -4.128,1.095 -6.146,3.378c-2.018,2.282 -4.127,5.204 -6.42,8.673l0,53.777l-15.502,0l0,-77.515l0.092,0Z" style="fill:#fff;fill-rule:nonzero;"/><path d="M682.444,240.761c1.284,0 2.384,0.182 3.485,0.639c1.101,0.456 2.018,1.004 2.844,1.735c0.825,0.73 1.467,1.552 1.926,2.465c0.459,0.913 0.734,1.917 0.734,2.921c0,1.005 -0.275,2.009 -0.734,3.013c-0.459,1.005 -1.101,1.826 -1.926,2.465c-0.826,0.731 -1.743,1.279 -2.844,1.644c-1.101,0.456 -2.201,0.639 -3.485,0.639c-2.385,0 -4.495,-0.73 -6.238,-2.283c-1.743,-1.552 -2.568,-3.378 -2.568,-5.478c0,-1.004 0.275,-2.008 0.734,-2.921c0.458,-0.913 1.1,-1.735 1.926,-2.465c0.825,-0.731 1.743,-1.279 2.843,-1.735c1.009,-0.457 2.11,-0.639 3.303,-0.639Zm-7.614,42.637l10.916,-4.473l4.586,0l0,79.249l-15.502,0l0,-74.776Z" style="fill:#fff;fill-rule:nonzero;"/><path d="M695.56,354.157l56.137,-67.107l-56.137,0l0,-6.482l78.243,0l0,3.287l-57.512,67.837l57.512,0l0,6.482l-78.243,0l0,-4.017Z" style="fill:#fff;fill-rule:nonzero;"/><path d="M816.456,359.817c-6.054,0 -11.558,-1.004 -16.603,-3.104c-5.045,-2.1 -9.448,-4.93 -13.117,-8.491c-3.669,-3.561 -6.512,-7.76 -8.53,-12.508c-2.018,-4.748 -3.027,-9.861 -3.027,-15.339c0,-5.752 1.009,-11.047 3.027,-16.069c2.018,-5.021 4.861,-9.404 8.53,-13.147c3.669,-3.743 7.981,-6.756 13.117,-8.856c5.045,-2.191 10.549,-3.287 16.603,-3.287c5.87,0 11.374,1.004 16.419,3.013c5.045,2.009 9.356,4.748 13.025,8.126c3.669,3.469 6.512,7.486 8.53,12.051c2.11,4.657 3.119,9.587 3.119,14.883c0,5.934 -1.009,11.503 -3.119,16.616c-2.109,5.204 -4.953,9.678 -8.53,13.604c-3.669,3.926 -7.98,6.939 -13.025,9.222c-5.045,2.191 -10.549,3.286 -16.419,3.286Zm2.935,-5.66c3.027,0 5.87,-0.731 8.347,-2.283c2.568,-1.552 4.678,-3.652 6.513,-6.3c1.834,-2.647 3.302,-5.752 4.311,-9.221c1.009,-3.469 1.559,-7.213 1.559,-11.139c0,-5.66 -0.459,-10.956 -1.468,-15.795c-1.009,-4.93 -2.568,-9.13 -4.769,-12.782c-2.202,-3.652 -5.045,-6.482 -8.531,-8.582c-3.485,-2.1 -7.797,-3.196 -12.842,-3.196c-2.66,0 -5.136,0.731 -7.613,2.283c-2.385,1.552 -4.586,3.561 -6.421,6.117c-1.834,2.556 -3.394,5.569 -4.494,9.039c-1.101,3.469 -1.651,7.121 -1.651,11.047c0,5.661 0.642,10.956 1.834,15.887c1.193,4.93 2.935,9.312 5.229,13.056c2.293,3.743 5.045,6.665 8.438,8.764c3.394,2.1 7.247,3.105 11.558,3.105Z" style="fill:#fff;fill-rule:nonzero;"/><path d="M867.089,280.568l15.593,0l0,14.152c4.678,-5.204 9.631,-9.13 14.676,-11.778c5.045,-2.648 10.274,-3.926 15.502,-3.926c2.66,0 5.228,0.639 7.613,1.826c2.385,1.278 4.495,2.922 6.238,5.022c1.742,2.099 3.21,4.565 4.219,7.395c1.009,2.83 1.559,5.935 1.559,9.13l0,55.785l-15.501,0l0,-53.137c0,-5.204 -1.193,-9.039 -3.486,-11.687c-2.293,-2.647 -5.32,-4.017 -8.989,-4.017c-3.302,0 -6.88,1.004 -10.824,3.104c-3.852,2.1 -7.613,4.748 -11.099,8.126l0,57.52l-15.593,0l0,-77.515l0.092,0Z" style="fill:#fff;fill-rule:nonzero;"/><path d="M969.914,354.522c2.109,0 4.036,-0.365 5.779,-1.004c1.834,-0.639 3.302,-1.552 4.586,-2.557c1.284,-1.095 2.293,-2.282 3.027,-3.652c0.734,-1.369 1.101,-2.83 1.101,-4.2c0,-2.374 -0.643,-4.473 -1.835,-6.208c-1.192,-1.735 -2.752,-3.287 -4.678,-4.657c-1.926,-1.369 -4.128,-2.647 -6.604,-3.834c-2.477,-1.187 -5.045,-2.374 -7.705,-3.652c-2.66,-1.187 -5.229,-2.557 -7.705,-3.926c-2.477,-1.37 -4.678,-3.013 -6.605,-4.93c-1.926,-1.826 -3.485,-4.018 -4.678,-6.483c-1.192,-2.465 -1.834,-5.295 -1.834,-8.582c0,-3.104 0.642,-5.935 1.926,-8.582c1.284,-2.648 3.21,-4.931 5.595,-6.848c2.385,-1.917 5.229,-3.469 8.439,-4.565c3.211,-1.096 6.788,-1.643 10.732,-1.643c2.568,0 4.953,0.182 7.247,0.547c2.293,0.366 4.494,1.005 6.604,2.1c2.201,1.005 4.311,2.465 6.512,4.383c2.11,1.917 4.403,4.382 6.788,7.395l-5.687,5.022c-2.935,-4.748 -6.237,-8.309 -9.906,-10.683c-3.669,-2.373 -7.522,-3.56 -11.65,-3.56c-2.201,0 -4.219,0.274 -6.054,0.821c-1.834,0.548 -3.393,1.279 -4.678,2.192c-1.284,0.913 -2.293,2.008 -3.027,3.287c-0.733,1.278 -1.1,2.556 -1.1,4.017c0,3.104 1.1,5.66 3.394,7.76c2.293,2.1 5.045,3.926 8.438,5.57c3.394,1.643 6.972,3.287 10.916,4.839c3.944,1.552 7.613,3.378 10.915,5.478c3.394,2.1 6.146,4.565 8.439,7.395c2.202,2.922 3.394,6.482 3.394,10.865c0,3.287 -0.642,6.391 -1.835,9.221c-1.192,2.831 -3.026,5.296 -5.595,7.396c-2.476,2.1 -5.595,3.743 -9.356,4.93c-3.761,1.187 -8.072,1.826 -13.117,1.826c-2.293,0 -4.678,-0.183 -7.063,-0.548c-2.385,-0.365 -4.861,-1.004 -7.246,-2.1c-2.385,-1.004 -4.862,-2.465 -7.338,-4.382c-2.477,-1.918 -4.862,-4.383 -7.247,-7.396l6.33,-5.66c1.834,2.648 3.669,4.839 5.411,6.756c1.743,1.826 3.486,3.378 5.321,4.565c1.834,1.187 3.669,2.009 5.595,2.557c1.743,0.456 3.852,0.73 6.054,0.73Z" style="fill:#fff;fill-rule:nonzero;"/></g><path d="M481.838,167.994c88.516,0 171.62,7.578 241.516,18.717c-21.189,-106.457 -115.484,-186.711 -228.582,-186.711c-113.007,0 -207.302,80.162 -228.582,186.437c60.722,-10.135 135.021,-18.443 215.648,-18.443Z" style="fill:#fff;fill-rule:nonzero;"/><path d="M108.787,232.361c0,0 162.356,-53.776 368.373,-53.776c182.994,0 338.287,32.32 403.779,59.346c-113.098,-32.96 -404.788,-53.503 -488.534,-38.164c86.681,-5.204 183.177,2.83 241.148,25.199c-73.747,-11.139 -97.963,-12.965 -172.353,-12.965c-60.906,0 -109.98,6.756 -161.163,20.269c45.037,-19.721 62.19,-21.182 103.926,-26.295c-79.894,-14.608 -295.176,26.386 -295.176,26.386Z" style="fill:#fff;fill-rule:nonzero;"/></g></svg>